<?xml version="1.0" standalone="no"?>
<!DOCTYPE svg PUBLIC "-//W3C//DTD SVG 1.1//EN" "http://www.w3.org/Graphics/SVG/1.1/DTD/svg11.dtd" >
<svg xmlns="http://www.w3.org/2000/svg" xmlns:xlink="http://www.w3.org/1999/xlink" version="1.1">
<metadata>
Created by FontForge 20170731 at Wed May 14 19:43:17 2014
 By Aleksey,,,
Copyright (c) 2010 by TypeTogether. All rights reserved.This font is ONLY licensed for use when accessed from the Extensis WebINK font service. Any other use of this font file is illegal under United States and international copyright laws. Please respect the rights of the people who design and license fonts.
</metadata>
<defs>
<font id="AdelleCyrillic-SemiBold" horiz-adv-x="500" >
  <font-face 
    font-family="Adelle Cyrillic"
    font-weight="600"
    font-stretch="normal"
    units-per-em="1000"
    panose-1="2 0 5 3 0 0 0 2 0 4"
    ascent="755"
    descent="-245"
    x-height="517"
    cap-height="724"
    bbox="-150 -244 1058 947"
    underline-thickness="50"
    underline-position="-150"
    unicode-range="U+000D-25CA"
  />
<missing-glyph 
 />
    <glyph glyph-name=".notdef" 
 />
    <glyph glyph-name=".null" horiz-adv-x="0" 
 />
    <glyph glyph-name="nonmarkingreturn" unicode="&#xd;" 
 />
    <glyph glyph-name="NULL" horiz-adv-x="0" 
 />
    <glyph glyph-name="NULL" horiz-adv-x="0" 
 />
    <glyph glyph-name="space" unicode=" " horiz-adv-x="214" 
 />
    <glyph glyph-name="exclam" unicode="!" horiz-adv-x="270" 
d="M87 191l-16 363v170h125v-170l-14 -363h-95zM209 57q0 -69 -74 -69t-74 69t74 69t74 -69z" />
    <glyph glyph-name="quotedbl" unicode="&#x22;" horiz-adv-x="378" 
d="M51 447v259h108v-259h-108zM219 447v259h108v-259h-108z" />
    <glyph glyph-name="numbersign" unicode="#" horiz-adv-x="607" 
d="M314 0l20 132h-107l-20 -132h-85l19 132h-108l18 80h103l21 134h-109l17 81h104l17 116h86l-18 -116h106l17 116h85l-18 -116h110l-16 -81h-106l-19 -134h109l-17 -80h-104l-20 -132h-85zM366 346h-106l-21 -134h107z" />
    <glyph glyph-name="dollar" unicode="$" horiz-adv-x="525" 
d="M477 183q0 -81 -47 -124.5t-125 -54.5v-84h-81v80q-55 2 -105 12.5t-79 24.5v152h76l16 -75q2 -11 5.5 -15t14.5 -9q10 -4 29.5 -6.5t42.5 -4.5v193q-31 9 -62 20.5t-55 31t-39 49t-15 74.5q0 42 13.5 74t37 54t56 35.5t69.5 18.5v74h81v-72q48 -2 86 -11t72 -20v-161
l-85 10l-15 74q-2 11 -6 15t-14 7q-8 2 -17.5 4t-20.5 3v-193q31 -10 61 -22.5t53.5 -32t38 -48.5t14.5 -73zM159 468q0 -33 19.5 -51.5t50.5 -31.5v162q-33 -8 -51.5 -27.5t-18.5 -51.5zM371 163q0 32 -18.5 51t-47.5 31v-160q34 8 50 28.5t16 49.5z" />
    <glyph glyph-name="percent" unicode="%" horiz-adv-x="874" 
d="M203 257q-46 0 -77.5 14.5t-50.5 38.5t-27 56t-8 67q0 83 42.5 135t128.5 52t124 -47.5t38 -126.5q0 -85 -42.5 -137t-127.5 -52zM192 -17l377 638h107l-376 -638h-108zM207 326q42 0 57.5 31t15.5 85q0 49 -15 78.5t-57 29.5t-58.5 -32.5t-16.5 -78.5q0 -51 15.5 -82
t58.5 -31zM665 -12q-46 0 -77.5 14.5t-50.5 38.5t-27 56t-8 67q0 83 42.5 135t128.5 52t123.5 -47.5t37.5 -126.5q0 -85 -42 -137t-127 -52zM668 57q42 0 58 31t16 85q0 49 -15 78.5t-57 29.5t-58.5 -32.5t-16.5 -78.5q0 -51 15.5 -82t57.5 -31z" />
    <glyph glyph-name="ampersand" unicode="&#x26;" horiz-adv-x="716" 
d="M542 0l-68 81q-43 -48 -95 -70.5t-118 -22.5q-49 0 -89.5 13.5t-70 39t-45.5 63.5t-16 87q0 75 41 128.5t122 79.5q-20 29 -33 58t-13 69q0 71 48.5 110.5t128.5 39.5q25 0 50 -4t46.5 -9.5t39.5 -12.5t28 -13v-144l-83 4l-13 68q-2 8 -4 11.5t-10 5.5q-19 6 -48 6
q-38 0 -56 -17t-18 -46q0 -15 3.5 -29t12 -29t22.5 -32.5t34 -40.5l125 -147q13 43 20.5 75t9.5 65h147v-63l-46 -9q-9 -2 -12 -4.5t-5 -12.5q-5 -33 -15.5 -68t-24.5 -64l67 -80q5 -6 10 -8.5t14 -4.5l56 -9v-64h-142zM258 327q-48 -12 -77 -44t-29 -86q0 -22 6.5 -43
t21 -37.5t37 -26.5t54.5 -10q39 0 75 17.5t63 55.5z" />
    <glyph glyph-name="quotesingle" unicode="'" horiz-adv-x="210" 
d="M51 447v259h108v-259h-108z" />
    <glyph glyph-name="parenleft" unicode="(" horiz-adv-x="324" 
d="M204 -164q-30 42 -57.5 91t-49 105t-34.5 118.5t-13 129.5q0 69 13.5 132t36 120t52 108t61.5 95l87 -52q-64 -99 -96.5 -194t-32.5 -208q0 -64 9.5 -118t26 -101t39 -90t47.5 -86z" />
    <glyph glyph-name="parenright" unicode=")" horiz-adv-x="323" 
d="M116 -164l-88 50q27 44 50 88t39.5 92t26 102t9.5 117q0 58 -8.5 109t-25 99t-39.5 94.5t-53 95.5l87 52q30 -41 59 -91.5t51 -108t35.5 -120.5t13.5 -131q0 -69 -12.5 -130.5t-34.5 -117.5t-50 -105.5t-60 -94.5z" />
    <glyph glyph-name="asterisk" unicode="*" horiz-adv-x="473" 
d="M85 443l42 52l84 63l-104 6l-64 22l28 82l64 -22l85 -58l-27 100v67h87v-67l-27 -100h-33l-9 -30l26 -21l-41 -95l-42 -53zM319 389l-42 53l-40 95l26 20l-10 31l86 58l63 22l28 -82l-64 -22l-103 -7l83 -62l42 -52z" />
    <glyph glyph-name="plus" unicode="+" horiz-adv-x="570" 
d="M235 125v150h-141v95h141v146h98v-146h142v-95h-142v-150h-98z" />
    <glyph glyph-name="comma" unicode="," horiz-adv-x="208" 
d="M53 -100l29 106q3 8 -5 11l-37 13l22 94q26 -1 48 -3.5t38 -10t25.5 -20.5t9.5 -36q0 -14 -5.5 -29.5t-12.5 -29.5l-57 -113z" />
    <glyph glyph-name="hyphen" unicode="-" horiz-adv-x="317" 
d="M23 239v104h271v-104h-271z" />
    <glyph glyph-name="period" unicode="." horiz-adv-x="247" 
d="M197 57q0 -69 -73 -69q-74 0 -74 69t74 69q73 0 73 -69z" />
    <glyph glyph-name="slash" unicode="/" horiz-adv-x="401" 
d="M8 -92l281 847h104l-280 -847h-105z" />
    <glyph glyph-name="zero" unicode="0" horiz-adv-x="585" 
d="M289 -12q-74 0 -122 22t-76 61.5t-39 93.5t-11 118q0 65 13 120.5t43 96t80 64t123 23.5t120 -22t74.5 -61t38.5 -92t11 -115q0 -65 -12 -121.5t-41.5 -98t-78.5 -65.5t-123 -24zM293 76q74 0 102 55t28 160q0 103 -26 155.5t-100 52.5q-75 0 -105 -53.5t-30 -162.5
q0 -100 28 -153.5t103 -53.5z" />
    <glyph glyph-name="one" unicode="1" horiz-adv-x="387" 
d="M35 0v65l95 6q11 1 13.5 5t2.5 15v375q0 11 -3 15t-11 6l-92 18l8 67h213v-481q0 -12 2.5 -15.5t13.5 -4.5l85 -7v-64h-327z" />
    <glyph glyph-name="two" unicode="2" horiz-adv-x="497" 
d="M30 0v75l134 131q36 36 65.5 64t49.5 52.5t31 47.5t11 48q0 38 -21 60.5t-74 22.5q-25 0 -43.5 -4t-30.5 -15t-18 -30.5t-6 -49.5l-105 11q0 56 19 90.5t49.5 53t68 24.5t74.5 6q56 0 94.5 -11.5t63 -32.5t35.5 -50.5t11 -64.5q0 -38 -13.5 -70t-35.5 -60.5t-50 -55.5
t-56 -55l-113 -108h187q8 0 10 2t4 10l14 82h82v-173h-437z" />
    <glyph glyph-name="three" unicode="3" horiz-adv-x="501" 
d="M329 263q131 -21 131 -154q0 -93 -61 -142.5t-168 -49.5q-73 0 -132.5 24t-94.5 64l65 71q30 -31 66 -49.5t90 -18.5q24 0 45.5 5t38 17t26 32.5t9.5 51.5q0 54 -32 78.5t-90 24.5q-18 0 -34.5 -1.5t-37.5 -5.5v82l55 5q62 6 93.5 37t31.5 80q0 38 -20.5 62.5t-73.5 24.5
q-49 0 -74.5 -19.5t-25.5 -79.5l-106 11q0 55 19 89t49.5 53t68.5 25.5t75 6.5q109 0 155.5 -44t46.5 -118q0 -61 -32 -101t-83 -57v-4z" />
    <glyph glyph-name="four" unicode="4" horiz-adv-x="524" 
d="M318 -67v141h-292v79l220 431l93 -46l-196 -375h175v188l107 10v-198h87v-89h-88v-141h-106z" />
    <glyph glyph-name="five" unicode="5" horiz-adv-x="523" 
d="M177 476l-14 -171q22 14 53 25.5t72 11.5q89 0 141.5 -52t52.5 -152q0 -46 -15 -86t-45 -70t-74 -47.5t-101 -17.5q-76 0 -137.5 23.5t-99.5 64.5l66 72q30 -31 70 -49.5t94 -18.5q24 0 47 7.5t40.5 22.5t28 38.5t10.5 56.5q0 36 -10.5 58.5t-27 36t-36 18.5t-37.5 5
q-38 0 -65 -13.5t-47 -31.5l-80 35l22 330h263q8 0 10 2.5t4 8.5l14 55l69 5v-167h-268z" />
    <glyph glyph-name="six" unicode="6" horiz-adv-x="546" 
d="M389 482q0 50 -19.5 67t-63.5 17q-42 0 -69 -20t-43 -51.5t-22 -69.5t-7 -75q29 19 67.5 34t88.5 15q91 0 139.5 -50.5t48.5 -140.5q0 -54 -16.5 -95t-47 -69t-73 -42t-94.5 -14q-70 0 -114.5 26.5t-69.5 71.5t-34.5 104.5t-9.5 126.5q0 51 10.5 109.5t39.5 108.5
t79.5 83t130.5 33q32 0 65 -6t60 -23t44.5 -47.5t17.5 -79.5zM168 264q1 -28 5 -61.5t16.5 -61.5t35.5 -47t62 -19q54 0 79 35t25 92q0 58 -21 85t-72 27q-18 0 -37 -5t-36 -12.5t-32 -16t-25 -16.5z" />
    <glyph glyph-name="seven" unicode="7" horiz-adv-x="505" 
d="M150 -67q9 102 34 187t57.5 153.5t68 119t64.5 83.5h-223q-8 0 -10 -2.5t-4 -8.5l-17 -88l-80 -6v201h459v-84q-43 -45 -83.5 -109t-71.5 -137.5t-50.5 -153t-21.5 -155.5h-122z" />
    <glyph glyph-name="eight" unicode="8" horiz-adv-x="514" 
d="M373 337q23 -13 43.5 -29t35.5 -36t24 -45t9 -56q0 -46 -18 -80.5t-49 -57t-73.5 -34t-92.5 -11.5q-105 0 -161 42t-56 122q0 32 8.5 58.5t23.5 49t34 41.5t40 36q-32 21 -57 53.5t-25 88.5q0 42 16.5 74.5t44.5 54t65.5 32.5t80.5 11q99 0 147.5 -42t48.5 -111
q0 -50 -27 -90t-62 -71zM223 294q-37 -32 -59 -63.5t-22 -69.5q0 -42 29 -66.5t86 -24.5q53 0 80 26.5t27 65.5q0 26 -12 45.5t-32 34.5t-45.5 27t-51.5 25zM288 377q30 27 49 56.5t19 62.5q0 42 -26.5 57.5t-66.5 15.5q-42 0 -65.5 -20t-23.5 -55q0 -22 9 -39t24 -30.5
t36 -24.5t45 -23z" />
    <glyph glyph-name="nine" unicode="9" horiz-adv-x="560" 
d="M113 61q29 -23 66 -38.5t76 -15.5q44 0 71 19t41 49t19 66.5t6 71.5q-26 -20 -64 -36.5t-92 -16.5q-88 0 -138 52.5t-50 150.5q0 106 59 165t167 59q71 0 116.5 -26t71.5 -70.5t36 -103.5t10 -125q0 -59 -9 -120t-36 -111t-76 -82t-129 -32q-54 0 -108 17t-89 51z
M390 301q-1 33 -5.5 68t-16.5 64.5t-35.5 48.5t-62.5 19q-55 0 -79.5 -35.5t-24.5 -91.5q0 -62 22 -93t75 -31q40 0 73 17t54 34z" />
    <glyph glyph-name="colon" unicode=":" horiz-adv-x="247" 
d="M197 57q0 -69 -73 -69q-74 0 -74 69t74 69q73 0 73 -69zM197 451q0 -69 -73 -69q-74 0 -74 69t74 69q73 0 73 -69z" />
    <glyph glyph-name="semicolon" unicode=";" horiz-adv-x="208" 
d="M53 -100l29 106q3 8 -5 11l-37 13l22 94q26 -1 48 -3.5t38 -10t25.5 -20.5t9.5 -36q0 -14 -5.5 -29.5t-12.5 -29.5l-57 -113zM193 451q0 -69 -73 -69q-74 0 -74 69t74 69q73 0 73 -69z" />
    <glyph glyph-name="less" unicode="&#x3c;" horiz-adv-x="570" 
d="M78 232v116l378 149l29 -92l-306 -114l309 -112l-28 -89z" />
    <glyph glyph-name="equal" unicode="=" horiz-adv-x="570" 
d="M96 147v97h378v-97h-378zM96 319v97h378v-97h-378z" />
    <glyph glyph-name="greater" unicode="&#x3e;" horiz-adv-x="570" 
d="M105 90l-28 89l309 112l-306 114l30 92l378 -149v-116z" />
    <glyph glyph-name="question" unicode="?" horiz-adv-x="493" 
d="M137 190v179q37 3 73 11.5t64.5 26t46 46.5t17.5 74q0 49 -29.5 75.5t-75.5 26.5q-29 0 -48 -4t-30 -10q-6 -3 -8 -6.5t-4 -14.5l-10 -60l-91 -7v157q35 14 86 27t110 13q49 0 91 -9.5t73 -32t48.5 -61t17.5 -95.5q0 -50 -16 -89.5t-44.5 -68t-68 -46.5t-87.5 -25v-107
h-115zM269 57q0 -69 -74 -69t-74 69t74 69t74 -69z" />
    <glyph glyph-name="at" unicode="@" horiz-adv-x="834" 
d="M613 -146q-26 -12 -75.5 -23.5t-124.5 -11.5q-80 0 -146 22t-113.5 66.5t-73.5 111t-26 154.5q0 89 28.5 161.5t79.5 124.5t122.5 80.5t157.5 28.5q76 0 139 -21t108 -61.5t70 -99.5t25 -135q0 -71 -15 -121t-41.5 -81.5t-62.5 -46t-79 -14.5q-47 0 -72.5 19.5
t-33.5 52.5q-29 -28 -60.5 -50t-69.5 -22q-52 0 -81 35t-29 104q0 54 15 103t42.5 86t68 59t91.5 22q39 0 74.5 -9.5t61.5 -22.5l-26 -160q-10 -51 -11 -85q-2 -20 0.5 -35t19.5 -19q15 -8 41 -2q32 8 57 51.5t25 124.5q0 121 -63.5 186.5t-197.5 65.5q-73 0 -128.5 -25.5
t-93 -68.5t-57 -100.5t-19.5 -122.5q0 -72 20 -125t56.5 -88t89 -52.5t117.5 -17.5q45 0 88 8.5t82 22.5zM504 318q-11 7 -25.5 10.5t-29.5 3.5q-25 0 -47 -14.5t-39 -40t-27 -60.5t-10 -76q0 -38 10 -57t34 -19q25 0 53.5 19.5t50.5 44.5z" />
    <glyph glyph-name="A" unicode="A" horiz-adv-x="732" 
d="M453 0v64l82 9l-46 135h-267l-46 -135l80 -9v-64h-250v63l43 11q9 2 15.5 6t9.5 13l220 631h141l221 -633q3 -9 9 -12t15 -5l46 -11v-63h-273zM358 613h-3l-107 -317h216z" />
    <glyph glyph-name="B" unicode="B" horiz-adv-x="671" 
d="M52 0v64l63 7q11 2 13.5 5.5t2.5 14.5v541q0 11 -2.5 15t-13.5 5l-63 7v65h313q64 0 106.5 -13.5t67.5 -37.5t35 -56.5t10 -69.5q0 -36 -10.5 -63.5t-27.5 -48.5t-39 -34.5t-45 -21.5v-3q86 -10 127 -55.5t41 -120.5q0 -55 -20 -93.5t-56 -62t-85.5 -34t-108.5 -10.5
h-308zM343 87q36 0 66.5 4.5t52.5 17.5t34.5 36.5t12.5 61.5q0 35 -11.5 58t-31.5 36.5t-47 19.5t-58 6h-114v-240h96zM316 413q29 0 56.5 4.5t49 17.5t35 35.5t13.5 59.5q0 33 -9.5 54t-27.5 32.5t-43.5 16t-58.5 4.5h-84v-224h69z" />
    <glyph glyph-name="C" unicode="C" horiz-adv-x="681" 
d="M631 42q-42 -27 -108.5 -40.5t-135.5 -13.5q-92 0 -157.5 27t-107.5 76.5t-61.5 119.5t-19.5 155q0 80 22.5 148t68.5 117.5t114.5 77.5t159.5 28q65 0 124.5 -14.5t98.5 -40.5v-175l-85 6l-17 97q-1 13 -14 17q-23 8 -51.5 13t-60.5 5q-109 0 -173.5 -71t-64.5 -208
q0 -144 61.5 -215.5t169.5 -71.5q31 0 65 3.5t59 13.5q8 2 11 5.5t5 13.5l16 92h81v-165z" />
    <glyph glyph-name="D" unicode="D" horiz-adv-x="761" 
d="M52 0v64l63 7q11 2 13.5 5.5t2.5 14.5v541q0 11 -2.5 15t-13.5 5l-63 7v65h309q94 0 162 -24.5t111.5 -70t64.5 -110.5t21 -146q0 -83 -22.5 -152t-68.5 -118t-117 -76t-168 -27h-292zM337 87q69 0 119 19t82 55t47 87t15 114q0 78 -16.5 130.5t-48.5 84.5t-80.5 46
t-111.5 14h-95v-550h89z" />
    <glyph glyph-name="E" unicode="E" horiz-adv-x="633" 
d="M52 0v64l63 7q11 2 13.5 5.5t2.5 14.5v541q0 11 -2.5 15t-13.5 5l-63 7v65h514v-180l-85 4l-14 77q-3 13 -17 13h-202v-230h254v-87h-254v-236h224q8 0 11 1.5t5 9.5l16 88h84v-184h-536z" />
    <glyph glyph-name="F" unicode="F" horiz-adv-x="605" 
d="M52 0v64l63 7q11 2 13.5 5.5t2.5 14.5v541q0 11 -2.5 15t-13.5 5l-63 7v65h510v-180l-85 4l-14 77q-3 13 -17 13h-198v-228h250v-87h-250v-231q0 -12 2.5 -15t13.5 -5l147 -8v-64h-359z" />
    <glyph glyph-name="G" unicode="G" horiz-adv-x="732" 
d="M673 273q-16 -1 -16 -14v-227q-51 -25 -118.5 -34.5t-128.5 -9.5q-102 0 -172.5 28.5t-114 79t-63 120t-19.5 150.5q0 80 22.5 147.5t68 117.5t114.5 78t161 28q60 0 121 -14t103 -42v-171l-86 7l-16 91q-2 8 -4 12.5t-10 6.5q-23 8 -54 13t-61 5q-110 0 -173.5 -73
t-63.5 -205q0 -139 64.5 -213.5t188.5 -74.5q27 0 58 3.5t53 8.5q7 2 10.5 5t3.5 12v159h-126l13 75h287v-65z" />
    <glyph glyph-name="H" unicode="H" horiz-adv-x="812" 
d="M485 0v64l63 7q11 2 13.5 5.5t2.5 14.5v238h-316v-237q0 -12 2.5 -15t13.5 -5l67 -8v-64h-279v64l63 7q11 2 13.5 5.5t2.5 14.5v542q0 11 -2.5 15t-13.5 5l-63 7v64h279v-64l-67 -8q-11 -2 -13.5 -5t-2.5 -14v-216h316v216q0 11 -2.5 15t-13.5 5l-63 7v64h275v-64l-63 -8
q-11 -2 -13.5 -5t-2.5 -14v-541q0 -12 2.5 -15t13.5 -5l63 -8v-64h-275z" />
    <glyph glyph-name="I" unicode="I" horiz-adv-x="397" 
d="M51 0v64l73 7q11 1 13.5 5t2.5 15v542q0 11 -2.5 15t-13.5 5l-73 7v64h299v-64l-77 -8q-11 -2 -13.5 -5t-2.5 -14v-541q0 -12 2.5 -15t13.5 -5l77 -8v-64h-299z" />
    <glyph glyph-name="J" unicode="J" horiz-adv-x="509" 
d="M277 634q0 10 -3 13.5t-13 4.5l-87 8v64h303v-64l-67 -8q-11 -2 -13.5 -5t-2.5 -14v-480q0 -85 -40.5 -125t-133.5 -40q-29 0 -56.5 3.5t-51 9t-40.5 11.5t-26 12v155l85 -6l11 -70q1 -10 11 -14q6 -2 21.5 -5.5t35.5 -3.5q40 0 53.5 18t13.5 59v477z" />
    <glyph glyph-name="K" unicode="K" horiz-adv-x="742" 
d="M438 0v64l62 10l-178 247l-74 -83v-146q0 -12 2.5 -15t13.5 -5l67 -8v-64h-279v64l63 7q11 2 13.5 5.5t2.5 14.5v542q0 11 -2.5 15t-13.5 5l-63 7v64h279v-64l-67 -8q-11 -2 -13.5 -5t-2.5 -14v-271l261 289l-62 8v65h240v-64l-47 -9q-14 -2 -19 -5t-12 -11l-203 -224
l227 -317q6 -10 11.5 -14t18.5 -6l61 -10v-64h-286z" />
    <glyph glyph-name="L" unicode="L" horiz-adv-x="621" 
d="M52 0v64l63 7q11 2 13.5 5.5t2.5 14.5v541q0 11 -2.5 15t-13.5 5l-63 7v65h295v-65l-83 -8q-11 -1 -13.5 -4.5t-2.5 -14.5v-547h224q8 0 11 1.5t5 9.5l16 95h84v-191h-536z" />
    <glyph glyph-name="M" unicode="M" horiz-adv-x="956" 
d="M617 0v64l83 7q11 1 13.5 5t2.5 15v455h-3l-174 -386h-130l-175 391h-2v-459q0 -12 2.5 -15.5t13.5 -4.5l86 -8v-64h-282v64l63 7q11 1 13.5 5t2.5 15v541q0 11 -2.5 15t-13.5 5l-63 7v65h225l205 -468h3l208 468h215v-64l-67 -8q-11 -2 -13.5 -5t-2.5 -14v-542
q0 -10 3 -14t13 -5l67 -8v-64h-291z" />
    <glyph glyph-name="N" unicode="N" horiz-adv-x="829" 
d="M573 0l-347 572v-480q0 -12 2.5 -15t13.5 -5l67 -8v-64h-257v64l63 7q11 2 13.5 5.5t2.5 14.5v542q0 11 -2.5 15t-13.5 5l-63 7v65h217l339 -570v478q0 11 -2.5 15t-13.5 5l-63 7v64h257v-64l-67 -8q-11 -2 -13.5 -5t-2.5 -14v-633h-130z" />
    <glyph glyph-name="O" unicode="O" horiz-adv-x="768" 
d="M380 -12q-88 0 -152 28t-105.5 77.5t-61 119t-19.5 151.5q0 80 22.5 148t66.5 118t110 78.5t153 28.5t150 -28.5t103.5 -77.5t60 -115t19.5 -141q0 -88 -21.5 -159.5t-64.5 -122t-108.5 -78t-152.5 -27.5zM384 85q50 0 91 16t70 50t45.5 87.5t16.5 127.5q0 139 -57 206.5
t-157 67.5q-51 0 -93 -17t-72.5 -51.5t-47.5 -86t-17 -120.5q0 -145 60.5 -212.5t160.5 -67.5z" />
    <glyph glyph-name="P" unicode="P" horiz-adv-x="654" 
d="M52 0v64l63 7q11 2 13.5 5.5t2.5 14.5v541q0 11 -2.5 15t-13.5 5l-63 7v65h321q69 0 115.5 -17t74.5 -46.5t39.5 -68t11.5 -81.5q0 -65 -19 -110.5t-54.5 -74.5t-86.5 -42t-114 -13h-93v-179q0 -12 2.5 -15t13.5 -5l143 -8v-64h-354zM326 357q33 0 63 5t53 20.5t37 45
t14 77.5q0 38 -10.5 63.5t-30.5 40.5t-49 21.5t-66 6.5h-90v-280h79z" />
    <glyph glyph-name="Q" unicode="Q" horiz-adv-x="768" 
d="M591 -167q-23 -12 -54 -20.5t-63 -8.5q-82 0 -113.5 37t-31.5 99q0 13 1 26.5t3 25.5q-76 7 -131.5 37t-91.5 78.5t-53 114t-17 142.5q0 80 22.5 148t66.5 118t110 78.5t153 28.5t149.5 -28.5t103.5 -77.5t60.5 -115t19.5 -141q0 -80 -18 -146t-53.5 -115.5t-89 -80.5
t-124.5 -40q-3 -20 -3 -39q0 -31 13.5 -47t48.5 -16q18 0 36 4t33 10zM383 84q50 0 90.5 16t69.5 50.5t45 88t16 127.5q0 139 -57 206.5t-157 67.5q-50 0 -92 -17t-72.5 -51.5t-47.5 -86t-17 -120.5q0 -72 16 -125t45 -87.5t70 -51.5t91 -17z" />
    <glyph glyph-name="R" unicode="R" horiz-adv-x="679" 
d="M403 0v63l66 9l-75 189q-9 23 -22.5 33t-39.5 10h-85v-212q0 -12 2.5 -15t13.5 -5l64 -8v-64h-275v64l63 7q11 2 13.5 5.5t2.5 14.5v541q0 11 -2.5 15t-13.5 5l-63 7v65h320q68 0 112 -17t69.5 -44.5t36 -63t10.5 -73.5q0 -79 -38 -124.5t-97 -68.5q23 -11 34.5 -31
t25.5 -56l60 -153q6 -11 12.5 -14t17.5 -5l61 -10v-64h-273zM321 389q32 0 60.5 5.5t50.5 20t34.5 40t12.5 66.5q0 69 -41.5 92.5t-123.5 23.5h-67v-248h74z" />
    <glyph glyph-name="S" unicode="S" horiz-adv-x="588" 
d="M432 528l-14 83q-3 15 -10 19q-9 5 -31.5 10.5t-56.5 5.5q-69 0 -103 -28t-34 -76q0 -28 12 -47.5t32.5 -33t47.5 -23t56 -18.5q37 -11 74 -25t67 -37t49 -59.5t19 -92.5q0 -60 -21.5 -101.5t-58.5 -67.5t-86.5 -37.5t-104.5 -11.5q-34 0 -67.5 4t-63 9.5t-52 12.5
t-35.5 13v176h85l20 -90q2 -10 4.5 -13.5t12.5 -6.5q11 -3 37.5 -9t64.5 -6q71 0 110 27.5t39 85.5q0 30 -12 50t-32 34t-46.5 23.5t-55.5 17.5q-37 11 -74.5 23.5t-68 35t-49.5 58t-19 92.5q0 55 20 95t54.5 66t82 38.5t101.5 12.5q64 0 114 -13t79 -24v-180z" />
    <glyph glyph-name="T" unicode="T" horiz-adv-x="667" 
d="M156 0v65l103 7q11 1 13.5 5t2.5 15v546h-134q-8 0 -11 -1.5t-5 -9.5l-16 -87h-84v184h617v-184h-83l-16 87q-2 8 -5 9.5t-11 1.5h-135v-546q0 -11 2.5 -14.5t13.5 -4.5l110 -8v-65h-362z" />
    <glyph glyph-name="U" unicode="U" horiz-adv-x="787" 
d="M560 633q0 11 -2.5 15t-13.5 5l-63 7v64h267v-64l-67 -8q-11 -2 -13.5 -5t-2.5 -14v-384q0 -135 -72 -198t-202 -63q-143 0 -206 66t-63 198v381q0 11 -2.5 15t-13.5 5l-63 7v64h279v-64l-67 -8q-11 -2 -13.5 -5t-2.5 -14v-364q0 -96 36 -140t122 -44q85 0 124 40.5
t39 140.5v367z" />
    <glyph glyph-name="V" unicode="V" horiz-adv-x="710" 
d="M284 0l-210 632q-3 9 -9 12t-15 5l-45 11l10 64h261v-64l-82 -9l171 -550h4l168 550l-80 9l10 64h235v-64l-42 -11q-9 -2 -15.5 -6t-9.5 -13l-194 -630h-157z" />
    <glyph glyph-name="W" unicode="W" horiz-adv-x="1013" 
d="M625 0l-116 421h-3l-114 -421h-148l-159 632q-5 15 -22 18l-55 10l10 64h273v-64l-87 -9l122 -533h4l125 465h123l128 -471h5l123 539l-88 9l10 64h249v-64l-50 -9q-11 -2 -15.5 -5t-7.5 -14l-153 -632h-154z" />
    <glyph glyph-name="X" unicode="X" horiz-adv-x="728" 
d="M431 0v64l76 9l-155 222l-152 -222l75 -9v-64h-251v62l55 11q15 4 26 19l190 268l-192 272q-5 8 -10 11.5t-14 5.5l-49 11l10 64h263v-64l-77 -9l145 -213l150 213l-75 9l10 64h229v-64l-46 -11q-9 -2 -14 -6.5t-11 -12.5l-185 -256l205 -282q5 -8 10 -11.5t14 -5.5
l52 -11v-64h-279z" />
    <glyph glyph-name="Y" unicode="Y" horiz-adv-x="642" 
d="M157 0v64l97 7q11 1 13.5 5t2.5 15v185l-199 356q-5 8 -10 11.5t-14 5.5l-45 11l10 64h253v-64l-76 -9l142 -273h5l143 273l-75 9l10 64h226v-64l-42 -11q-8 -2 -14.5 -6t-10.5 -13l-186 -352v-186q0 -12 2.5 -15t13.5 -5l103 -8v-64h-349z" />
    <glyph glyph-name="Z" unicode="Z" horiz-adv-x="655" 
d="M50 0v75l400 563h-269q-8 0 -11 -1.5t-5 -9.5l-19 -93l-84 -3v193h528v-78l-395 -561h290q8 0 11 1.5t5 9.5l19 107h84v-203h-554z" />
    <glyph glyph-name="bracketleft" unicode="[" horiz-adv-x="280" 
d="M57 -143v867h190v-62l-64 -10q-11 -2 -13.5 -5.5t-2.5 -14.5v-682q0 -11 2.5 -14.5t13.5 -5.5l64 -10v-63h-190z" />
    <glyph glyph-name="backslash" unicode="\" horiz-adv-x="401" 
d="M288 -92l-280 847h104l281 -847h-105z" />
    <glyph glyph-name="bracketright" unicode="]" horiz-adv-x="280" 
d="M33 -143v63l64 10q11 2 13.5 5.5t2.5 14.5v682q0 11 -2.5 14.5t-13.5 5.5l-64 10v62h190v-867h-190z" />
    <glyph glyph-name="asciicircum" unicode="^" horiz-adv-x="574" 
d="M432 299l-148 267l-145 -267h-109l197 365h117l200 -365h-112z" />
    <glyph glyph-name="underscore" unicode="_" 
d="M0 -181v83h500v-83h-500z" />
    <glyph glyph-name="grave" unicode="`" 
d="M308 564l-177 144l69 67l154 -168z" />
    <glyph glyph-name="a" unicode="a" horiz-adv-x="547" 
d="M373 0l-10 59l-3 1q-33 -32 -75 -52t-101 -20q-47 0 -75.5 14.5t-43.5 35.5t-19.5 46t-4.5 46q0 75 46 112.5t138 45.5l127 10v51q0 24 -3 42t-12 30t-26.5 18.5t-46.5 6.5q-21 0 -38 -1.5t-29 -9t-18.5 -22t-6.5 -40.5l-108 10q0 48 19.5 76.5t49.5 43.5t65.5 19.5
t67.5 4.5q54 0 92 -8.5t62 -29t34.5 -55t10.5 -86.5v-257q0 -12 2.5 -15t13.5 -5l49 -7v-64h-157zM352 225l-95 -8q-57 -5 -77.5 -22.5t-20.5 -53.5t16.5 -50t47.5 -14q37 0 71.5 18.5t57.5 41.5v88z" />
    <glyph glyph-name="b" unicode="b" horiz-adv-x="602" 
d="M75 0q5 30 9 69t4 75v507q0 17 -13 21l-57 19l10 64h174v-282q35 22 74.5 38t90.5 16q41 0 76 -14t60.5 -44t40 -78t14.5 -116q0 -77 -15.5 -131.5t-43.5 -89t-67 -50.5t-87 -16q-90 0 -149 59h-4l-6 -47h-111zM203 138q21 -20 51.5 -38.5t72.5 -18.5q59 0 85.5 49.5
t26.5 137.5q0 81 -27.5 123t-77.5 42q-39 0 -73.5 -16.5t-57.5 -32.5v-246z" />
    <glyph glyph-name="c" unicode="c" horiz-adv-x="495" 
d="M465 33q-32 -20 -79.5 -32.5t-99.5 -12.5q-66 0 -113 19.5t-78 55t-45.5 84t-14.5 105.5q0 71 20 122.5t55 85.5t84 50.5t107 16.5q57 0 100 -12.5t63 -23.5v-142l-83 4l-12 66q-1 10 -11 14t-26.5 6.5t-35.5 2.5q-29 0 -54.5 -9.5t-45 -31t-30.5 -56t-11 -84.5
q0 -51 11 -85.5t31 -56t47.5 -30.5t60.5 -9q38 0 70.5 9t56.5 22z" />
    <glyph glyph-name="d" unicode="d" horiz-adv-x="604" 
d="M420 0l-9 59l-6 1q-33 -33 -73 -52.5t-97 -19.5q-43 0 -78.5 14.5t-60.5 46t-38.5 81t-13.5 119.5q0 75 16.5 127.5t45 86t67 49t81.5 15.5q45 0 82 -12t66 -33v170q0 16 -13 20l-57 19l10 64h172v-664q0 -12 2.5 -15t13.5 -5l49 -7v-64h-159zM399 387q-22 18 -52.5 33
t-63.5 15q-32 0 -55 -13.5t-37.5 -38t-21 -58t-6.5 -73.5q0 -93 26.5 -131.5t77.5 -38.5q37 0 71.5 19.5t60.5 47.5v238z" />
    <glyph glyph-name="e" unicode="e" horiz-adv-x="518" 
d="M474 35q-42 -21 -89.5 -34t-102.5 -13q-70 0 -117 21t-76 58t-41.5 86.5t-12.5 107.5q0 68 18.5 118t50.5 83t75 49t92 16q47 0 86 -13t67 -42t43.5 -75t15.5 -111q0 -10 -0.5 -27t-2.5 -31h-323q4 -70 34.5 -109t103.5 -39q37 0 69.5 8t77.5 27zM368 311q0 37 -8 61.5
t-21.5 39.5t-31.5 21.5t-38 6.5q-43 0 -75 -30t-36 -99h210z" />
    <glyph glyph-name="f" unicode="f" horiz-adv-x="419" 
d="M35 0v65l61 6q11 1 13.5 5t2.5 15v334q0 5 -1 7.5t-7 2.5h-70v82h78v67q0 94 48.5 138t146.5 44q32 0 61.5 -5t51.5 -19t35.5 -39t13.5 -66l-107 -13q0 39 -14.5 50.5t-45.5 11.5q-48 0 -61.5 -25t-13.5 -67v-67q0 -5 1 -7.5t7 -2.5h161v-82h-169v-341q0 -12 2.5 -15.5
t13.5 -4.5l119 -10v-64h-327z" />
    <glyph glyph-name="g" unicode="g" horiz-adv-x="554" 
d="M449 438q15 -20 26.5 -44t11.5 -59q0 -43 -16 -77t-44.5 -56.5t-66.5 -34.5t-82 -12q-25 0 -47.5 2t-36.5 7l-46 -76l123 -6q67 -3 116.5 -8.5t82 -19t48.5 -40t16 -71.5q0 -80 -67.5 -124t-198.5 -44q-66 0 -111.5 8.5t-74 24.5t-41 38.5t-12.5 51.5q0 36 17.5 60.5
t43.5 48.5q-25 11 -35.5 27.5t-10.5 34.5q0 29 25 57q12 14 26.5 31t28.5 31q-35 19 -56.5 56.5t-21.5 90.5q0 42 14.5 77t42.5 60.5t69 40t95 14.5q27 0 52.5 -2.5t41.5 -7.5h182v-73zM385 339q0 52 -29.5 79.5t-82.5 27.5q-51 0 -83.5 -26t-32.5 -83q0 -43 25.5 -71.5
t87.5 -28.5q52 0 83.5 27.5t31.5 74.5zM169 -14q-14 -14 -26 -32t-12 -38q0 -35 37 -48t103 -13q19 0 44.5 2t48.5 9.5t39 22t16 38.5q0 16 -7 25.5t-19.5 14.5t-30 6.5t-39.5 3.5z" />
    <glyph glyph-name="h" unicode="h" horiz-adv-x="628" 
d="M358 0v63l47 7q12 2 14.5 6.5t2.5 14.5v232q0 18 -2 37t-9 35.5t-21 27t-39 10.5q-37 0 -73 -17t-64 -37v-288q0 -12 2.5 -15t13.5 -5l53 -7v-64h-248v63l48 8q11 2 13.5 5.5t2.5 14.5v560q0 17 -13 21l-57 19l10 64h174v-292q38 26 79 45t94 19q81 0 116 -49t35 -132
v-255q0 -12 2.5 -15t13.5 -5l55 -7v-64h-250z" />
    <glyph glyph-name="i" unicode="i" horiz-adv-x="305" 
d="M219 690q0 -36 -20 -55.5t-55 -19.5q-36 0 -55.5 19.5t-19.5 55.5q0 35 19.5 54t55.5 19q35 0 55 -19t20 -54zM23 0v63l60 8q11 2 13.5 5.5t2.5 14.5v322q0 17 -13 21l-55 19l10 64h173v-426q0 -12 2.5 -15t13.5 -5l59 -7v-64h-266z" />
    <glyph glyph-name="j" unicode="j" horiz-adv-x="296" 
d="M97 413q0 9 -2 13.5t-10 7.5l-62 19l10 64h179v-577q0 -85 -39 -124t-117 -39q-52 0 -92.5 15.5t-57.5 30.5l38 68q13 -9 37.5 -18.5t51.5 -9.5q37 0 50.5 22t13.5 76v452zM218 690q0 -36 -20 -55.5t-55 -19.5t-55 19.5t-20 55.5q0 35 20 54t55 19t55 -19t20 -54z" />
    <glyph glyph-name="k" unicode="k" horiz-adv-x="602" 
d="M338 0v63l57 9l-109 191l-72 -80v-92q0 -12 2.5 -15t13.5 -5l56 -7v-64h-260v63l57 8q11 2 13.5 5.5t2.5 14.5v560q0 17 -13 21l-57 19l10 64h175v-459l201 221h122v-64l-55 -11q-10 -2 -14 -4.5t-11 -10.5l-83 -91l142 -247q6 -10 11.5 -12.5t18.5 -4.5l48 -9v-63h-256z
" />
    <glyph glyph-name="l" unicode="l" horiz-adv-x="305" 
d="M26 0v63l57 8q11 2 13.5 5.5t2.5 14.5v560q0 17 -13 21l-57 19l10 64h175v-664q0 -12 2.5 -15t13.5 -5l56 -7v-64h-260z" />
    <glyph glyph-name="m" unicode="m" horiz-adv-x="903" 
d="M629 0v63l52 7q11 2 13.5 6.5t2.5 13.5v235q0 21 -2 40.5t-8.5 33.5t-19 22.5t-33.5 8.5q-34 0 -67 -12.5t-56 -27.5q2 -13 3 -27t1 -29v-243q0 -12 2.5 -15t13.5 -5l46 -7v-64h-246v63l53 7q11 2 13.5 6.5t2.5 13.5v230q0 22 -1.5 42t-7.5 35.5t-18.5 24.5t-34.5 9
q-36 0 -67.5 -15.5t-56.5 -35.5v-289q0 -12 2.5 -15t13.5 -5l49 -7v-64h-244v63l48 8q11 2 13.5 5.5t2.5 14.5v322q0 17 -13 21l-55 19l10 64h148l8 -56l4 -1q38 29 79 48t92 19q36 0 67.5 -12.5t51.5 -47.5q36 23 77.5 41.5t96.5 18.5q42 0 70 -12t45 -34.5t24.5 -54
t7.5 -70.5v-265q0 -12 2.5 -15t13.5 -5l55 -7v-64h-254z" />
    <glyph glyph-name="n" unicode="n" horiz-adv-x="628" 
d="M356 0v63l50 6q11 2 13.5 6.5t2.5 13.5v232q0 23 -2 43t-9.5 35t-21.5 23.5t-38 8.5q-38 0 -75 -17t-62 -35v-288q0 -12 2.5 -15t13.5 -5l53 -7v-64h-248v65l48 6q11 2 13.5 5.5t2.5 14.5v322q0 17 -13 21l-55 19l10 64h148l8 -55l4 -1q42 29 87.5 47.5t99.5 18.5
q81 0 115 -48.5t34 -134.5v-253q0 -12 2.5 -15t13.5 -5l55 -7v-64h-252z" />
    <glyph glyph-name="o" unicode="o" horiz-adv-x="573" 
d="M284 -12q-69 0 -116.5 20t-77 55t-42.5 84t-13 106q0 62 15.5 112.5t48 86.5t81 55.5t114.5 19.5t112.5 -19.5t75.5 -54t42.5 -82.5t13.5 -105q0 -63 -15 -114.5t-46 -87.5t-79 -56t-114 -20zM287 73q64 0 98 44t34 143q0 96 -32 138t-96 42t-100 -42t-36 -139
t33.5 -141.5t98.5 -44.5z" />
    <glyph glyph-name="p" unicode="p" horiz-adv-x="610" 
d="M39 -212v65l41 6q11 2 14 5.5t3 15.5v533q0 16 -13 21l-55 19l10 64h149l9 -56l3 -1q36 29 80 48t96 19q42 0 77 -14t60 -44t39 -78t14 -116q0 -48 -9 -99t-32 -93t-63 -68.5t-102 -26.5q-42 0 -80 13.5t-70 38.5v-160q0 -12 3 -15.5t14 -4.5l98 -8v-64h-286zM212 133
q23 -20 54 -36.5t69 -16.5q60 0 86.5 50.5t26.5 137.5q0 46 -8 77.5t-22.5 51t-33.5 28t-41 8.5q-20 0 -39.5 -5.5t-37 -13.5t-31.5 -17t-23 -17v-247z" />
    <glyph glyph-name="q" unicode="q" horiz-adv-x="590" 
d="M310 -212v64l80 8q11 1 14.5 4.5t3.5 14.5v178q-34 -30 -73 -49.5t-96 -19.5q-44 0 -80 14.5t-61.5 46t-39.5 81t-14 119.5q0 74 17 127t45.5 86.5t67 49t81.5 15.5q47 0 84.5 -16t66.5 -39l13 45h104q-5 -41 -7.5 -77t-2.5 -72v-489q0 -11 2.5 -14.5t13.5 -5.5l50 -6
v-65h-269zM399 388q-21 17 -52.5 32t-64.5 15q-32 0 -54.5 -13.5t-37 -38t-21 -58t-6.5 -73.5q0 -93 27.5 -132t78.5 -39q37 0 70.5 21.5t59.5 46.5v239z" />
    <glyph glyph-name="r" unicode="r" horiz-adv-x="449" 
d="M35 0v65l48 6q11 2 13.5 5.5t2.5 14.5v322q0 16 -13 21l-55 19l10 64h149l11 -73l3 -1q25 32 60.5 58t86.5 26q17 0 40.5 -2.5t37.5 -6.5v-164l-90 4l-12 62q-1 11 -12 11q-14 0 -29 -5.5t-28.5 -13.5t-24.5 -17t-19 -16v-287q0 -12 3 -15.5t14 -4.5l94 -8v-64h-290z" />
    <glyph glyph-name="s" unicode="s" horiz-adv-x="471" 
d="M340 368l-11 58q-1 10 -11 14q-10 3 -29.5 6.5t-42.5 3.5q-48 0 -71.5 -16.5t-23.5 -46.5q0 -20 9.5 -33t26 -21.5t38 -14t45.5 -11.5q30 -7 60 -16.5t54 -26.5t39 -44t15 -70q0 -44 -17 -75t-46 -50.5t-67.5 -28t-81.5 -8.5q-32 0 -63 4t-56.5 9t-43.5 11.5t-25 10.5
v136l83 -5l10 -61q2 -6 3.5 -9t8.5 -5q10 -3 33 -8.5t57 -5.5q47 0 73.5 15.5t26.5 53.5q0 21 -11 34t-29.5 21.5t-42 13.5t-48.5 11q-28 6 -56 15t-50.5 25t-36 41.5t-13.5 65.5q0 45 17.5 77t46.5 51.5t67 28.5t78 9q28 0 54 -3t48.5 -7.5t39.5 -9.5t26 -9v-135z" />
    <glyph glyph-name="t" unicode="t" horiz-adv-x="424" 
d="M398 23q-31 -14 -69.5 -24.5t-78.5 -10.5q-79 0 -114 35t-35 110v292q0 5 -1 7.5t-7 2.5h-72v71q59 8 85.5 46.5t36.5 104.5h73v-130q0 -5 1 -7.5t7 -2.5h145v-82h-153v-272q0 -47 15 -66t57 -19q23 0 45 5t42 12z" />
    <glyph glyph-name="u" unicode="u" horiz-adv-x="626" 
d="M441 0l-9 61l-3 1q-16 -13 -35.5 -26.5t-42 -24t-49.5 -17t-60 -6.5q-81 0 -112.5 42t-31.5 128v260q0 12 -2.5 16t-13.5 6l-51 12l9 65h173v-334q0 -51 12.5 -77t54.5 -26q22 0 42 6.5t37.5 16.5t32.5 22.5t27 24.5v268q0 12 -2.5 16t-13.5 6l-48 12l9 65h170v-426
q0 -10 2.5 -14t10.5 -6l52 -7v-64h-158z" />
    <glyph glyph-name="v" unicode="v" horiz-adv-x="596" 
d="M234 0l-165 425q-3 9 -7.5 12t-13.5 5l-42 9l13 66h236v-66l-67 -8l123 -333h4l124 333l-66 8l11 66h206v-66l-34 -6q-10 -2 -15.5 -4.5t-9.5 -12.5l-164 -428h-133z" />
    <glyph glyph-name="w" unicode="w" horiz-adv-x="856" 
d="M534 0l-95 372h-3l-91 -372h-140l-136 425q-3 9 -7.5 12t-13.5 5l-42 9l13 66h225v-66l-60 -8l96 -328h4l101 388h124l96 -386h4l94 326l-61 8l11 66h197v-66l-36 -6q-12 -2 -17 -6t-8 -14l-130 -425h-125z" />
    <glyph glyph-name="x" unicode="x" horiz-adv-x="586" 
d="M320 0v64l56 9l-97 127l-103 -127l61 -9v-64h-225v63l46 9q11 2 16.5 6t13.5 12l137 164l-137 170q-6 7 -10.5 10.5t-13.5 6.5l-42 11l10 65h231v-65l-56 -8l93 -119l101 119l-61 8l10 65h205v-65l-44 -10q-9 -3 -15 -7.5t-12 -11.5l-129 -152l144 -180q7 -8 12.5 -12
t14.5 -6l50 -9v-64h-256z" />
    <glyph glyph-name="y" unicode="y" horiz-adv-x="597" 
d="M103 -212v66l71 8q13 2 17.5 6.5t9.5 15.5l51 117l-184 424q-4 9 -8 12t-13 5l-41 9l13 66h233v-66l-65 -8l125 -309h4l124 309l-66 8l11 66h206v-66l-33 -5q-10 -2 -15.5 -5t-9.5 -12l-234 -566l100 -10v-65h-296z" />
    <glyph glyph-name="z" unicode="z" 
d="M37 0v66l287 373h-175q-6 0 -8 -4t-3 -9l-12 -60l-83 -5v156h415v-68l-283 -372h186q7 0 8.5 4t2.5 9l12 72l85 4v-166h-432z" />
    <glyph glyph-name="braceleft" unicode="{" horiz-adv-x="307" 
d="M266 -148q-50 3 -85.5 10t-58 22t-33 39t-10.5 60q0 42 7 90.5t7 99.5q0 50 -22 65.5t-57 16.5v67q35 2 57 17.5t22 64.5q0 51 -7 100.5t-7 91.5q0 36 10.5 60t33 39t58 22t85.5 10l10 -67q-22 -5 -37.5 -9.5t-25 -12t-13.5 -19.5t-4 -31q0 -40 7 -88t7 -96
q0 -55 -19 -80t-47 -36q28 -11 47 -35.5t19 -79.5q0 -48 -7 -95t-7 -87q0 -19 4 -30.5t13.5 -19t25 -12.5t37.5 -10z" />
    <glyph glyph-name="bar" unicode="|" horiz-adv-x="280" 
d="M88 -143v898h104v-898h-104z" />
    <glyph glyph-name="braceright" unicode="}" horiz-adv-x="307" 
d="M31 -81q22 5 37.5 10t25 12.5t13.5 19t4 30.5q0 40 -7 87t-7 95q0 55 19 79.5t47 35.5q-28 11 -47 36t-19 80q0 48 7 96t7 88q0 19 -4 31t-13.5 19.5t-25 12t-37.5 9.5l10 67q50 -3 85.5 -10t58 -22t33 -39t10.5 -60q0 -42 -7 -91.5t-7 -100.5q0 -49 22 -64.5t57 -17.5
v-67q-35 -1 -57 -16.5t-22 -65.5q0 -51 7 -99.5t7 -90.5q0 -36 -10.5 -60t-33 -39t-58 -22t-85.5 -10z" />
    <glyph glyph-name="asciitilde" unicode="~" horiz-adv-x="499" 
d="M480 416q-11 -58 -33.5 -90.5t-70.5 -32.5q-27 0 -57.5 7t-60 16t-57 16t-49.5 7q-24 0 -39 -11t-32 -40l-61 28q17 50 46 83.5t76 33.5q29 0 57.5 -7t57 -16t55 -16t50.5 -7t34.5 12t20.5 40z" />
    <glyph glyph-name="uni00A0" unicode="&#xa0;" horiz-adv-x="214" 
 />
    <glyph glyph-name="sterling" unicode="&#xa3;" horiz-adv-x="557" 
d="M58 0l-14 72q26 18 41 36t22.5 41t9.5 54t2 75v12h-76v87h76v54q0 44 10 84t35.5 70t68.5 48t109 18q35 0 68 -6t59 -23t41.5 -47t15.5 -79l-105 -14q-1 41 -15 62.5t-64 21.5q-58 0 -83 -33.5t-25 -99.5v-56h166v-87h-166q0 -35 -1.5 -64.5t-8 -54.5t-19 -47.5
t-34.5 -44.5h242q8 0 10 3t4 9l16 82h82v-173h-467z" />
    <glyph glyph-name="currency" unicode="&#xa4;" horiz-adv-x="570" 
d="M496 1l-88 87q-52 -33 -124 -33q-80 0 -128 33q-20 -21 -44.5 -44.5t-42.5 -42.5l-69 69l91 91q-15 27 -20.5 56.5t-5.5 62.5q0 30 6.5 57.5t21.5 53.5l-90 89l72 72l84 -85q53 38 131 38t129 -36l82 82l68 -70l-86 -86q26 -49 26 -111q0 -67 -31 -124l90 -89zM288 147
q56 0 85 39t29 94q0 61 -29 95.5t-87 34.5q-57 0 -85.5 -36.5t-28.5 -93.5q0 -28 6.5 -52t21 -42t36.5 -28.5t52 -10.5z" />
    <glyph glyph-name="brokenbar" unicode="&#xa6;" horiz-adv-x="280" 
d="M88 -143v388h104v-388h-104zM88 407v348h104v-348h-104z" />
    <glyph glyph-name="section" unicode="&#xa7;" horiz-adv-x="556" 
d="M75 27l80 -5l11 -62q1 -5 3 -8t9 -5q10 -4 33 -9.5t52 -5.5q44 0 69.5 16t25.5 53q0 29 -21 44t-53 24.5t-69 18t-69 24.5t-53 44.5t-21 78.5q0 44 22 77.5t51 55.5q-22 17 -35.5 42.5t-13.5 63.5q0 41 16 70.5t43.5 48.5t63.5 28t76 9q59 0 104.5 -10.5t63.5 -18.5v-135
l-83 6l-10 59q-1 5 -2.5 8t-8.5 5q-11 4 -28 7t-43 3q-48 0 -69 -19.5t-21 -48.5q0 -27 21 -41.5t53 -24t69 -18.5t69 -26t53 -45.5t21 -76.5t-21 -80t-50 -53q21 -16 34.5 -39.5t13.5 -58.5q0 -46 -16 -77.5t-43.5 -51t-64 -28t-77.5 -8.5q-30 0 -60.5 4t-56 9.5t-44 11.5
t-24.5 10v134zM216 333q-23 -13 -35 -34t-12 -43q0 -18 8 -30.5t21.5 -21.5t32 -15.5t38.5 -12.5l69 -20q22 14 34.5 35t12.5 47q0 18 -8.5 30t-23.5 21t-34.5 15t-40.5 12z" />
    <glyph glyph-name="dieresis" unicode="&#xa8;" 
d="M209 663q0 -28 -17 -44.5t-45 -16.5t-45.5 16.5t-17.5 44.5t17.5 44t45.5 16t45 -16t17 -44zM413 663q0 -28 -17 -44.5t-45 -16.5t-45 16.5t-17 44.5t17 44t45 16t45 -16t17 -44z" />
    <glyph glyph-name="copyright" unicode="&#xa9;" horiz-adv-x="765" 
d="M716 319q0 -75 -24.5 -136.5t-68.5 -105t-105.5 -67.5t-135.5 -24q-82 0 -144.5 24.5t-104.5 67t-63 101t-21 126.5q0 78 26.5 140t72 104.5t106.5 65t130 22.5q77 0 138.5 -22.5t104.5 -64t66 -100t23 -131.5zM384 45q62 0 111 18.5t83.5 53t53 84.5t18.5 112
q0 65 -20 114t-55 83t-84 51t-107 17q-57 0 -105.5 -18.5t-84.5 -53t-56 -85t-20 -115.5q0 -122 70.5 -191.5t195.5 -69.5zM508 145q-20 -12 -52 -18.5t-62 -6.5q-51 0 -86.5 14t-58 39t-33 60t-10.5 76q0 44 12 81t36 63.5t59.5 41t83.5 14.5q31 0 62.5 -6.5t49.5 -13.5
v-108l-48 4l-8 45q-2 11 -11 15q-20 8 -51 8q-46 0 -76.5 -32.5t-30.5 -109.5q0 -28 6 -53t19 -43.5t35 -29t53 -10.5q32 0 46 7q7 4 10 14l12 51h43v-102z" />
    <glyph glyph-name="guillemotleft" unicode="&#xab;" horiz-adv-x="450" 
d="M137 103l-87 155l89 150h98l-77 -138q-4 -6 -4 -9.5t3 -9.5l75 -148h-97zM308 103l-87 155l89 150h98l-77 -138q-4 -6 -4 -9.5t3 -9.5l75 -148h-97z" />
    <glyph glyph-name="logicalnot" unicode="&#xac;" horiz-adv-x="570" 
d="M379 183v95h-288v95h381v-190h-93z" />
    <glyph glyph-name="uni00AD" unicode="&#xad;" horiz-adv-x="311" 
d="M23 239v104h271v-104h-271z" />
    <glyph glyph-name="registered" unicode="&#xae;" horiz-adv-x="450" 
d="M410 480q0 -41 -13.5 -75t-38 -58.5t-58.5 -38t-75 -13.5q-46 0 -80.5 13.5t-57.5 37.5t-35 56.5t-12 70.5q0 43 14.5 77.5t40 58.5t59 37t72.5 13q85 0 134.5 -49t49.5 -130zM366 477q0 69 -40 104.5t-100 35.5q-30 0 -55.5 -9.5t-44.5 -28t-30 -45t-11 -60.5
q0 -65 37.5 -101t103.5 -36q65 0 102.5 37t37.5 103zM238 384v21l19 3l-20 39q-4 7 -7 9.5t-11 2.5h-14v-46q0 -5 5 -6l16 -2v-21h-82v21l15 2q5 1 5 7v129q0 7 -6 8l-14 2v22h88q40 0 53.5 -16.5t13.5 -37.5q0 -20 -10 -33t-27 -19q10 -3 17 -18l18 -36q2 -5 8 -6l17 -4
v-21h-84zM219 488q15 0 26 6t11 25q0 15 -9 20t-23 5h-19v-56h14z" />
    <glyph glyph-name="macron" unicode="&#xaf;" 
d="M94 606v82h311v-82h-311z" />
    <glyph glyph-name="degree" unicode="&#xb0;" horiz-adv-x="301" 
d="M151 614q23 0 36 14.5t13 38.5t-13 38t-36 14q-21 0 -35.5 -14.5t-14.5 -40.5q0 -23 13.5 -36.5t36.5 -13.5zM259 667q0 -50 -29.5 -79t-78.5 -29t-79 28.5t-30 76.5q0 53 32 81.5t77 28.5q46 0 77 -28t31 -79z" />
    <glyph glyph-name="plusminus" unicode="&#xb1;" horiz-adv-x="570" 
d="M94 0v95h381v-95h-381zM235 134v141h-141v95h141v146h98v-146h142v-95h-142v-141h-98z" />
    <glyph glyph-name="mu" unicode="&#xb5;" horiz-adv-x="629" 
d="M435 0l-8 59h-5q-31 -33 -64 -52t-75 -19q-26 0 -47.5 7.5t-35.5 21.5l-2 -2l13 -191h-118v693h115v-339q0 -23 2.5 -41.5t11 -31.5t23 -20t38.5 -7q38 0 70 20t61 53v366h115v-426q0 -10 2.5 -14t10.5 -6l53 -7v-64h-160z" />
    <glyph glyph-name="paragraph" unicode="&#xb6;" horiz-adv-x="586" 
d="M388 -133v702h-70v-702h-164v64l66 8q9 1 11.5 4.5t2.5 12.5v212q-103 8 -157.5 68.5t-54.5 161.5q0 68 22 115t60 76.5t89 42.5t108 13h253v-64l-67 -8q-11 -2 -13.5 -5t-2.5 -14v-598q0 -11 3 -13t13 -4l67 -8v-64h-166z" />
    <glyph glyph-name="periodcentered" unicode="&#xb7;" horiz-adv-x="228" 
d="M188 314q0 -69 -74 -69t-74 69t74 69t74 -69z" />
    <glyph glyph-name="cedilla" unicode="&#xb8;" 
d="M146 -182q5 -1 12.5 -1.5t15.5 -0.5q38 0 54.5 14.5t16.5 37.5q0 21 -16 32t-52 12l16 118l63 -8l-9 -67q29 -6 52.5 -25.5t23.5 -59.5q0 -21 -7.5 -41t-24.5 -36.5t-43.5 -26.5t-65.5 -10q-12 0 -24.5 1t-18.5 3z" />
    <glyph glyph-name="guillemotright" unicode="&#xbb;" horiz-adv-x="449" 
d="M51 103l75 143q4 7 4 10t-3 9l-77 143h98l88 -153l-87 -152h-98zM222 103l75 143q4 7 4 10t-3 9l-77 143h98l88 -153l-87 -152h-98z" />
    <glyph glyph-name="multiply" unicode="&#xd7;" horiz-adv-x="570" 
d="M284 252l-102 -103l-69 68l103 104l-103 104l69 69l102 -104l103 104l69 -69l-103 -104l103 -104l-69 -68z" />
    <glyph glyph-name="divide" unicode="&#xf7;" horiz-adv-x="570" 
d="M350 162q0 -32 -17.5 -49t-52.5 -17q-70 0 -70 66q0 31 17.5 48.5t52.5 17.5t52.5 -17.5t17.5 -48.5zM94 274v94h381v-94h-381zM350 481q0 -66 -70 -66t-70 66q0 30 17.5 48t52.5 18t52.5 -18t17.5 -48z" />
    <glyph glyph-name="florin" unicode="&#x192;" horiz-adv-x="510" 
d="M266 302l-39 -227q-8 -48 -21.5 -81.5t-35 -53.5t-52.5 -29t-75 -9t-85 12.5t-62 29.5l34 74q19 -13 48.5 -23t56.5 -10q35 0 54.5 17t28.5 68l40 222q1 5 0 7.5t-7 2.5h-92l14 78h100l18 95q9 45 22.5 78t35 55t53 32.5t76.5 10.5q49 0 86 -11.5t62 -25.5l-22 -135
l-73 5l-2 63q0 6 -1.5 10.5t-8.5 6.5q-6 2 -15 4t-26 2q-40 0 -56.5 -24t-24.5 -68l-16 -88q-1 -10 7 -10h135l-14 -78h-143z" />
    <glyph glyph-name="circumflex" unicode="&#x2c6;" 
d="M371 568l-121 98l-121 -98l-50 44l125 125h92l125 -125z" />
    <glyph glyph-name="caron" unicode="&#x2c7;" 
d="M202 579l-123 125l52 44l120 -97l122 97l48 -44l-127 -125h-92z" />
    <glyph glyph-name="uni02C9" unicode="&#x2c9;" 
d="M94 606v82h311v-82h-311z" />
    <glyph glyph-name="breve" unicode="&#x2d8;" 
d="M419 707q-17 -63 -58 -99t-113 -36t-111 36t-56 99l70 24q15 -44 37.5 -64t61.5 -20t64 20t41 64z" />
    <glyph glyph-name="dotaccent" unicode="&#x2d9;" 
d="M325 691q0 -35 -19.5 -54.5t-55.5 -19.5q-35 0 -55 19.5t-20 54.5t20 54.5t55 19.5q36 0 55.5 -19.5t19.5 -54.5z" />
    <glyph glyph-name="ring" unicode="&#x2da;" 
d="M359 666q0 -44 -28 -69.5t-73 -25.5q-46 0 -74 25t-28 68q0 47 30 72.5t72 25.5t71.5 -25t29.5 -71zM258 625q40 0 40 41q0 22 -11 32t-29 10t-29.5 -10t-11.5 -33q0 -40 41 -40z" />
    <glyph glyph-name="ogonek" unicode="&#x2db;" 
d="M347 -200q-26 -12 -53 -18t-50 -6q-47 0 -72 21.5t-25 61.5q0 27 12.5 51.5t30.5 45t38.5 37t36.5 28.5l64 -17q-12 -10 -27 -24t-27.5 -29.5t-21.5 -33t-9 -34.5q0 -31 30 -31q22 0 50 11z" />
    <glyph glyph-name="tilde" unicode="&#x2dc;" 
d="M405 639q-17 -28 -31.5 -41t-34.5 -13q-11 0 -25 2.5t-32 7.5q-30 8 -62 17.5t-47 11.5q-9 2 -16 -5l-35 -36l-49 33l29 47q28 45 63 45q10 0 22 -2.5t28 -6.5q14 -4 31 -9t33.5 -9t29.5 -7.5t20 -4.5q8 -1 14 5l32 35l53 -33z" />
    <glyph glyph-name="hungarumlaut" unicode="&#x2dd;" 
d="M111 565l-48 39l137 182l74 -63zM291 565l-49 39l138 181l74 -62z" />
    <glyph glyph-name="uni0394" unicode="&#x394;" horiz-adv-x="688" 
d="M18 0l253 724h141l258 -724h-652zM158 100h352l-179 525z" />
    <glyph glyph-name="uni03A9" unicode="&#x3a9;" horiz-adv-x="811" 
d="M469 0v166q26 10 54.5 30t52.5 51t39.5 73.5t15.5 96.5q0 117 -58 171t-156 54q-48 0 -89 -15t-70.5 -44.5t-46 -74.5t-16.5 -105q0 -47 12 -85t33 -67.5t49 -50.5t59 -34v-166h-303v165h81l14 -69q2 -8 5 -9.5t11 -1.5h106v44q-93 35 -140 108.5t-47 170.5
q0 73 23.5 133.5t68 104t108.5 67.5t144 24q86 0 148 -22t103 -62.5t60.5 -97t19.5 -125.5q0 -55 -16 -101.5t-43 -84.5t-62.5 -67t-74.5 -48v-44h101q8 0 11 1.5t5 9.5l15 69h80v-165h-297z" />
    <glyph glyph-name="uni03BC" unicode="&#x3bc;" horiz-adv-x="629" 
d="M435 0l-8 59h-5q-31 -33 -64 -52t-75 -19q-26 0 -47.5 7.5t-35.5 21.5l-2 -2l13 -191h-118v693h115v-339q0 -23 2.5 -41.5t11 -31.5t23 -20t38.5 -7q38 0 70 20t61 53v366h115v-426q0 -10 2.5 -14t10.5 -6l53 -7v-64h-160z" />
    <glyph glyph-name="pi" unicode="&#x3c0;" horiz-adv-x="668" 
d="M434 0v434h-202v-434h-179v64l48 7q10 1 12.5 3.5t3.5 11.5v338q0 11 -2.5 15t-13.5 5l-55 7v66h576v-66l-57 -7q-11 -2 -13.5 -5.5t-2.5 -14.5v-333q0 -12 2.5 -15t13.5 -5l47 -7v-64h-178z" />
    <glyph glyph-name="afii10023" unicode="&#x401;" horiz-adv-x="633" 
d="M284 842q0 -28 -17 -44.5t-45 -16.5t-45.5 16.5t-17.5 44.5t17.5 44.5t45.5 16.5t45 -16.5t17 -44.5zM488 842q0 -28 -17 -44.5t-45 -16.5t-45 16.5t-17 44.5t17 44.5t45 16.5t45 -16.5t17 -44.5zM52 0v64l63 7q11 2 13.5 5.5t2.5 14.5v541q0 11 -2.5 15t-13.5 5l-63 7
v65h514v-180l-85 4l-14 77q-3 13 -17 13h-202v-230h254v-87h-254v-236h224q8 0 11 1.5t5 9.5l16 88h84v-184h-536z" />
    <glyph glyph-name="afii10051" unicode="&#x402;" horiz-adv-x="815" 
d="M542 79q5 -2 9.5 -2h10.5q97 0 97 123q0 37 -12 61.5t-32 39.5t-46.5 21.5t-56.5 6.5q-35 0 -66.5 -4.5t-61.5 -10.5v-314h-195v64l63 7q11 2 13.5 5.5t2.5 14.5v547h-124q-8 0 -11 -1.5t-5 -9.5l-16 -87h-84v184h647v-184h-83l-17 86q-2 8 -5.5 10t-11.5 2h-174v-234
q27 5 65.5 10.5t89.5 5.5q110 0 174 -55.5t64 -158.5q0 -43 -11.5 -82t-37 -68.5t-65.5 -46.5t-98 -17q-15 0 -32.5 1.5t-35 4t-33 6.5t-26.5 9v148h77l14 -68q2 -7 4 -9.5t9 -4.5z" />
    <glyph glyph-name="afii10052" unicode="&#x403;" horiz-adv-x="596" 
d="M249 766l-31 55l196 126l46 -84zM52 0v64l63 7q11 2 13.5 5.5t2.5 14.5v541q0 11 -2.5 15t-13.5 5l-63 7v65h510v-192l-83 3l-17 91q-2 8 -5.5 10t-11.5 2h-197v-546q0 -12 2.5 -15t13.5 -5l144 -8v-64h-356z" />
    <glyph glyph-name="afii10053" unicode="&#x404;" horiz-adv-x="682" 
d="M631 42q-21 -13 -49 -23.5t-59.5 -17t-65 -10t-66.5 -3.5q-93 0 -159.5 26.5t-109 76t-62 119t-19.5 156.5q0 81 22.5 149t67.5 117.5t112.5 77t158.5 27.5q66 0 126 -14.5t99 -40.5v-175l-85 6l-17 97q-1 13 -14 17q-23 8 -52 13t-60 5q-102 0 -164 -59.5t-71 -180.5
h292v-88h-291q10 -123 70 -180.5t161 -57.5q30 0 63.5 3.5t58.5 13.5q8 2 11 5.5t5 13.5l16 92h81v-165z" />
    <glyph glyph-name="afii10054" unicode="&#x405;" horiz-adv-x="588" 
d="M432 528l-14 83q-3 15 -10 19q-9 5 -31.5 10.5t-56.5 5.5q-69 0 -103 -28t-34 -76q0 -28 12 -47.5t32.5 -33t47.5 -23t56 -18.5q37 -11 74 -25t67 -37t49 -59.5t19 -92.5q0 -60 -21.5 -101.5t-58.5 -67.5t-86.5 -37.5t-104.5 -11.5q-34 0 -67.5 4t-63 9.5t-52 12.5
t-35.5 13v176h85l20 -90q2 -10 4.5 -13.5t12.5 -6.5q11 -3 37.5 -9t64.5 -6q71 0 110 27.5t39 85.5q0 30 -12 50t-32 34t-46.5 23.5t-55.5 17.5q-37 11 -74.5 23.5t-68 35t-49.5 58t-19 92.5q0 55 20 95t54.5 66t82 38.5t101.5 12.5q64 0 114 -13t79 -24v-180z" />
    <glyph glyph-name="afii10055" unicode="&#x406;" horiz-adv-x="397" 
d="M51 0v64l73 7q11 1 13.5 5t2.5 15v542q0 11 -2.5 15t-13.5 5l-73 7v64h299v-64l-77 -8q-11 -2 -13.5 -5t-2.5 -14v-541q0 -12 2.5 -15t13.5 -5l77 -8v-64h-299z" />
    <glyph glyph-name="afii10056" unicode="&#x407;" horiz-adv-x="397" 
d="M51 0v64l73 7q11 1 13.5 5t2.5 15v542q0 11 -2.5 15t-13.5 5l-73 7v64h299v-64l-77 -8q-11 -2 -13.5 -5t-2.5 -14v-541q0 -12 2.5 -15t13.5 -5l77 -8v-64h-299zM34 842q0 28 17.5 44.5t45.5 16.5t45 -16.5t17 -44.5t-17 -44.5t-45 -16.5t-45.5 16.5t-17.5 44.5zM239 842
q0 28 17 44.5t45 16.5t45 -16.5t17 -44.5t-17 -44.5t-45 -16.5t-45 16.5t-17 44.5z" />
    <glyph glyph-name="afii10057" unicode="&#x408;" horiz-adv-x="511" 
d="M277 634q0 10 -3 13.5t-13 4.5l-87 8v64h303v-64l-67 -8q-11 -2 -13.5 -5t-2.5 -14v-480q0 -85 -40.5 -125t-133.5 -40q-29 0 -56.5 3.5t-51 9t-40.5 11.5t-26 12v155l85 -6l11 -70q1 -10 11 -14q6 -2 21.5 -5.5t35.5 -3.5q40 0 53.5 18t13.5 59v477z" />
    <glyph glyph-name="afii10058" unicode="&#x409;" horiz-adv-x="1026" 
d="M981 227q0 -60 -20 -103t-55 -70.5t-83.5 -40.5t-105.5 -13h-292v64l63 7q11 2 13.5 5.5t2.5 14.5v547h-193q2 -103 -1.5 -204.5t-14.5 -182.5q-7 -55 -23 -101t-45 -80.5t-73 -56t-108 -27.5l-20 105q36 5 62.5 17.5t46 34t32 55t19.5 80.5q5 27 8 65t5.5 84t3 97
t-0.5 104q0 14 -2.5 18.5t-13.5 6.5l-65 7v64h613v-64l-97 -9q-10 -1 -13 -5t-4 -15v-200h123q67 0 112.5 -15.5t73.5 -42.5t40 -64.5t12 -81.5zM705 87q33 0 61.5 6t49 21.5t32.5 41.5t12 66q0 69 -39 97t-103 28h-98v-260h85z" />
    <glyph glyph-name="afii10059" unicode="&#x40a;" horiz-adv-x="1048" 
d="M248 410h280v223q0 11 -2.5 14.5t-13.5 5.5l-63 7v64h309v-64l-97 -9q-10 -1 -13 -5t-4 -15v-221h118q68 0 114 -14t74.5 -39.5t40.5 -62.5t12 -82q0 -57 -20 -97t-55 -65.5t-83.5 -37.5t-105.5 -12h-290v64l63 7q11 2 13.5 5.5t2.5 14.5v234h-280v-233q0 -12 2.5 -15
t13.5 -5l67 -8v-64h-279v64l63 7q11 2 13.5 5.5t2.5 14.5v542q0 11 -2.5 15t-13.5 5l-63 7v64h279v-64l-67 -8q-11 -2 -13.5 -5t-2.5 -14v-223zM727 87q33 0 61.5 5t49 18.5t32.5 37.5t12 61q0 34 -10 56t-29 35t-45 18.5t-58 5.5h-96v-237h83z" />
    <glyph glyph-name="afii10060" unicode="&#x40b;" horiz-adv-x="867" 
d="M384 413q35 9 77.5 15.5t86.5 6.5q104 0 150.5 -47t46.5 -144v-153q0 -11 2.5 -14.5t13.5 -5.5l64 -7v-64h-260v63l45 6q12 2 15 6t3 15v133q0 62 -21.5 90.5t-83.5 28.5q-32 0 -70.5 -6t-68.5 -14v-230q0 -12 2.5 -15.5t13.5 -5.5l65 -7v-64h-279v64l65 8q10 2 13.5 6
t3.5 15v545h-124q-8 0 -11 -1.5t-5 -9.5l-16 -87h-84v184h647v-184h-84l-17 86q-2 8 -5.5 10t-11.5 2h-173v-225z" />
    <glyph glyph-name="afii10061" unicode="&#x40c;" horiz-adv-x="752" 
d="M337 766l-31 55l196 126l46 -84zM248 412h70q35 0 56.5 11.5t37.5 51.5l64 160q20 51 50.5 76.5t89.5 25.5q12 -1 27 -2.5t27 -3.5l-4 -82q-16 3 -29 3q-28 0 -41 -13.5t-23 -40.5l-48 -133q-16 -44 -42 -63t-48 -26v-1q14 -4 25.5 -12t22.5 -20.5t22 -30.5t25 -44
l90 -168q7 -12 12.5 -17.5t16.5 -7.5l65 -11v-64h-183q-13 34 -30.5 70.5t-35 71t-34 65t-27.5 51.5q-11 20 -21 33t-21 20.5t-25.5 10.5t-34.5 3h-54v-233q0 -12 2.5 -15t13.5 -5l67 -8v-64h-279v64l63 7q11 2 13.5 6t2.5 15v541q0 11 -2.5 15t-13.5 5l-63 7v64h279v-64
l-67 -8q-11 -2 -13.5 -5t-2.5 -14v-221z" />
    <glyph glyph-name="afii10062" unicode="&#x40e;" horiz-adv-x="676" 
d="M367 853q38 0 55.5 20.5t28.5 55.5l77 -23q-14 -57 -52.5 -90.5t-110.5 -33.5t-111.5 32.5t-51.5 90.5l81 25q7 -35 26 -56t58 -21zM398 144q-18 -43 -36.5 -73t-40 -48.5t-49 -26.5t-63.5 -8q-34 0 -73 9t-64 24l32 84q16 -9 41.5 -16.5t51.5 -7.5q20 0 33.5 4.5t23 14
t17.5 24t16 34.5l-200 471q-4 9 -10 13.5t-15 6.5l-45 11l10 64h253v-64l-74 -9l146 -380h4l150 380l-71 9l10 64h221v-64l-42 -11q-14 -4 -18.5 -10t-11.5 -22z" />
    <glyph glyph-name="afii10145" unicode="&#x40f;" horiz-adv-x="784" 
d="M50 0v64l65 8q11 1 13.5 4.5t2.5 14.5v542q0 11 -2.5 14.5t-13.5 5.5l-65 7v64h275v-64l-61 -7q-11 -2 -13.5 -5.5t-2.5 -14.5v-547h288v547q0 11 -2.5 14.5t-13.5 5.5l-61 7v64h275v-64l-65 -7q-11 -2 -13.5 -5.5t-2.5 -14.5v-542q0 -11 2.5 -14t13.5 -5l65 -8v-64h-268
q-13 0 -14 -13l-18 -146l-76 4l-18 142q-1 13 -13 13h-277z" />
    <glyph glyph-name="afii10017" unicode="&#x410;" horiz-adv-x="732" 
d="M453 0v64l82 9l-46 135h-267l-46 -135l80 -9v-64h-250v63l43 11q9 2 15.5 6t9.5 13l220 631h141l221 -633q3 -9 9 -12t15 -5l46 -11v-63h-273zM358 613h-3l-107 -317h216z" />
    <glyph glyph-name="afii10018" unicode="&#x411;" horiz-adv-x="675" 
d="M52 64l63 7q11 2 13.5 5.5t2.5 14.5v541q0 12 -2.5 15t-13.5 5l-63 7v65h510v-191l-83 4l-16 89q-2 8 -5.5 10t-11.5 2h-199v-235h143q64 0 109.5 -13.5t74.5 -38.5t42.5 -60t13.5 -77q0 -57 -19 -98t-54 -66.5t-83.5 -37.5t-107.5 -12h-314v64zM352 87q35 0 63.5 5
t49.5 18.5t32.5 37.5t11.5 61q0 34 -11.5 55.5t-31 33.5t-46.5 16.5t-59 4.5h-114v-232h105z" />
    <glyph glyph-name="afii10019" unicode="&#x412;" horiz-adv-x="668" 
d="M52 0v64l63 7q11 2 13.5 5.5t2.5 14.5v541q0 11 -2.5 15t-13.5 5l-63 7v65h313q64 0 106.5 -13.5t67.5 -37.5t35 -56.5t10 -69.5q0 -36 -10.5 -63.5t-27.5 -48.5t-39 -34.5t-45 -21.5v-3q86 -10 127 -55.5t41 -120.5q0 -55 -20 -93.5t-56 -62t-85.5 -34t-108.5 -10.5
h-308zM343 87q36 0 66.5 4.5t52.5 17.5t34.5 36.5t12.5 61.5q0 35 -11.5 58t-31.5 36.5t-47 19.5t-58 6h-114v-240h96zM316 413q29 0 56.5 4.5t49 17.5t35 35.5t13.5 59.5q0 33 -9.5 54t-27.5 32.5t-43.5 16t-58.5 4.5h-84v-224h69z" />
    <glyph glyph-name="afii10020" unicode="&#x413;" horiz-adv-x="596" 
d="M52 0v64l63 7q11 2 13.5 5.5t2.5 14.5v541q0 11 -2.5 15t-13.5 5l-63 7v65h510v-192l-83 3l-17 91q-2 8 -5.5 10t-11.5 2h-197v-546q0 -12 2.5 -15t13.5 -5l144 -8v-64h-356z" />
    <glyph glyph-name="afii10021" unicode="&#x414;" horiz-adv-x="778" 
d="M153 0q-8 0 -11 -3t-4 -10l-20 -132l-84 -4v235h58q28 38 49.5 80t36 94.5t22 120t7.5 155.5v95q0 11 -2.5 15.5t-13.5 6.5l-63 7v64h600v-64l-67 -8q-10 -2 -13 -6t-3 -15v-545h80v-235l-85 4l-18 132q-1 13 -16 13h-453zM317 541q0 -159 -23 -269.5t-76 -185.5h310v552
h-211v-97z" />
    <glyph glyph-name="afii10022" unicode="&#x415;" horiz-adv-x="633" 
d="M52 0v64l63 7q11 2 13.5 5.5t2.5 14.5v541q0 11 -2.5 15t-13.5 5l-63 7v65h514v-180l-85 4l-14 77q-3 13 -17 13h-202v-230h254v-87h-254v-236h224q8 0 11 1.5t5 9.5l16 88h84v-184h-536z" />
    <glyph glyph-name="afii10024" unicode="&#x416;" horiz-adv-x="1055" 
d="M585 414h51q35 0 54.5 12t33.5 52l55 151q10 27 21 47.5t27 34t38.5 20t55.5 6.5q17 0 30 -2t25 -4l-5 -82q-8 1 -14.5 1.5t-12.5 0.5q-17 -1 -28 -5.5t-19 -15t-14.5 -27t-15.5 -40.5l-33 -94q-15 -43 -35 -63t-45 -28v-1q27 -8 45 -28t39 -62l96 -187q6 -12 11.5 -17.5
t16.5 -7.5l67 -11v-64h-186q-14 37 -31 74.5t-33.5 72t-32 64t-26.5 50.5t-20.5 33.5t-20 19.5t-23 9.5t-30.5 2.5h-41v-233q0 -12 2.5 -15.5t13.5 -5.5l60 -8v-64h-267v64l59 7q11 2 13.5 6t2.5 17v232h-45q-17 0 -29.5 -2.5t-23 -9.5t-20 -20t-20.5 -33t-26.5 -50
t-32 -64.5t-33.5 -72.5t-31 -74h-182v64l66 11q14 2 20 9.5t14 22.5l82 161q14 26 24.5 44.5t21.5 31t22.5 20t26.5 12.5v1q-23 7 -46 26.5t-37 63.5l-39 119q-11 33 -23 48t-41 17q-6 0 -14.5 -0.5t-16.5 -1.5l-5 81q15 3 34 5t33 2q28 0 47.5 -5t34 -15.5t24.5 -28
t19 -42.5l46 -130q11 -31 20 -51t20 -31t26 -15.5t37 -4.5h47v219q0 11 -2.5 15t-13.5 5l-61 7v64h273v-64l-64 -8q-11 -2 -13.5 -5t-2.5 -14v-219z" />
    <glyph glyph-name="afii10025" unicode="&#x417;" horiz-adv-x="582" 
d="M290 737q115 0 174.5 -46t59.5 -135q0 -69 -39.5 -114t-102.5 -62v-4q72 -12 115 -55.5t43 -123.5q0 -45 -17.5 -83t-51.5 -66t-85 -44t-119 -16q-32 0 -65 4t-62.5 11t-54 16.5t-40.5 19.5v164h86l18 -89q2 -7 4.5 -10.5t10.5 -7.5q24 -9 50.5 -13t52.5 -4q32 0 60 7.5
t48.5 22.5t32 38.5t11.5 56.5q0 61 -39 89.5t-107 28.5h-102v90h61q83 0 128 36t45 94q0 30 -10 51t-27 33.5t-40 18t-50 5.5q-29 0 -53 -4.5t-47 -11.5q-12 -4 -14 -18l-17 -90l-85 -6v160q38 23 100 40t128 17z" />
    <glyph glyph-name="afii10026" unicode="&#x418;" horiz-adv-x="823" 
d="M498 0v64l63 7q11 2 13.5 5.5t2.5 14.5v478h-4l-320 -569h-201v64l63 7q11 2 13.5 5.5t2.5 14.5v542q0 11 -2.5 15t-13.5 5l-63 7v64h277v-64l-67 -8q-11 -2 -13.5 -5t-2.5 -14v-468h4l315 559h210v-64l-67 -8q-11 -2 -13.5 -5t-2.5 -14v-541q0 -12 2.5 -15t13.5 -5
l67 -8v-64h-277z" />
    <glyph glyph-name="afii10027" unicode="&#x419;" horiz-adv-x="823" 
d="M442 853q38 0 55.5 20.5t28.5 55.5l77 -23q-14 -57 -52.5 -90.5t-110.5 -33.5t-111.5 32.5t-51.5 90.5l81 25q7 -35 26 -56t58 -21zM498 0v64l63 7q11 2 13.5 5.5t2.5 14.5v478h-4l-320 -569h-201v64l63 7q11 2 13.5 5.5t2.5 14.5v542q0 11 -2.5 15t-13.5 5l-63 7v64h277
v-64l-67 -8q-11 -2 -13.5 -5t-2.5 -14v-468h4l315 559h210v-64l-67 -8q-11 -2 -13.5 -5t-2.5 -14v-541q0 -12 2.5 -15t13.5 -5l67 -8v-64h-277z" />
    <glyph glyph-name="afii10028" unicode="&#x41a;" horiz-adv-x="752" 
d="M248 412h70q35 0 56.5 11.5t37.5 51.5l64 160q20 51 50.5 76.5t89.5 25.5q12 -1 27 -2.5t27 -3.5l-4 -82q-16 3 -29 3q-28 0 -41 -13.5t-23 -40.5l-48 -133q-16 -44 -42 -63t-48 -26v-1q14 -4 25.5 -12t22.5 -20.5t22 -30.5t25 -44l90 -168q7 -12 12.5 -17.5t16.5 -7.5
l65 -11v-64h-183q-13 34 -30.5 70.5t-35 71t-34 65t-27.5 51.5q-11 20 -21 33t-21 20.5t-25.5 10.5t-34.5 3h-54v-233q0 -12 2.5 -15t13.5 -5l67 -8v-64h-279v64l63 7q11 2 13.5 6t2.5 15v541q0 11 -2.5 15t-13.5 5l-63 7v64h279v-64l-67 -8q-11 -2 -13.5 -5t-2.5 -14v-221z
" />
    <glyph glyph-name="afii10029" unicode="&#x41b;" horiz-adv-x="774" 
d="M449 0v64l59 7q11 2 13.5 5.5t2.5 14.5v547h-205q2 -103 -1 -204.5t-14 -182.5q-7 -55 -23.5 -101.5t-46 -81t-73.5 -56t-107 -26.5l-20 103q38 6 64.5 18t45.5 34t31 54t19 78q5 27 8.5 65.5t5.5 84.5t3 98t0 106q0 14 -3 18.5t-14 6.5l-65 8v64h595v-64l-67 -8
q-10 -2 -13 -6t-3 -15v-539q0 -12 2.5 -15t13.5 -5l67 -8v-64h-275z" />
    <glyph glyph-name="afii10030" unicode="&#x41c;" horiz-adv-x="958" 
d="M617 0v64l83 7q11 1 13.5 5t2.5 15v455h-3l-174 -386h-130l-175 391h-2v-459q0 -12 2.5 -15.5t13.5 -4.5l86 -8v-64h-282v64l63 7q11 1 13.5 5t2.5 15v541q0 11 -2.5 15t-13.5 5l-63 7v65h225l205 -468h3l208 468h215v-64l-67 -8q-11 -2 -13.5 -5t-2.5 -14v-542
q0 -10 3 -14t13 -5l67 -8v-64h-291z" />
    <glyph glyph-name="afii10031" unicode="&#x41d;" horiz-adv-x="814" 
d="M485 0v64l63 7q11 2 13.5 5.5t2.5 14.5v238h-316v-237q0 -12 2.5 -15t13.5 -5l67 -8v-64h-279v64l63 7q11 2 13.5 5.5t2.5 14.5v542q0 11 -2.5 15t-13.5 5l-63 7v64h279v-64l-67 -8q-11 -2 -13.5 -5t-2.5 -14v-216h316v216q0 11 -2.5 15t-13.5 5l-63 7v64h275v-64l-63 -8
q-11 -2 -13.5 -5t-2.5 -14v-541q0 -12 2.5 -15t13.5 -5l63 -8v-64h-275z" />
    <glyph glyph-name="afii10032" unicode="&#x41e;" horiz-adv-x="769" 
d="M380 -12q-88 0 -152 28t-105.5 77.5t-61 119t-19.5 151.5q0 80 22.5 148t66.5 118t110 78.5t153 28.5t150 -28.5t103.5 -77.5t60 -115t19.5 -141q0 -88 -21.5 -159.5t-64.5 -122t-108.5 -78t-152.5 -27.5zM384 85q50 0 91 16t70 50t45.5 87.5t16.5 127.5q0 139 -57 206.5
t-157 67.5q-51 0 -93 -17t-72.5 -51.5t-47.5 -86t-17 -120.5q0 -145 60.5 -212.5t160.5 -67.5z" />
    <glyph glyph-name="afii10033" unicode="&#x41f;" horiz-adv-x="792" 
d="M467 0v64l59 7q11 2 13.5 5.5t2.5 14.5v547h-294v-546q0 -12 2.5 -15t13.5 -5l63 -8v-64h-275v64l63 7q11 2 13.5 5.5t2.5 14.5v542q0 11 -2.5 15t-13.5 5l-63 7v64h690v-64l-67 -8q-11 -2 -13.5 -5t-2.5 -14v-541q0 -12 2.5 -15t13.5 -5l67 -8v-64h-275z" />
    <glyph glyph-name="afii10034" unicode="&#x420;" horiz-adv-x="652" 
d="M52 0v64l63 7q11 2 13.5 5.5t2.5 14.5v541q0 11 -2.5 15t-13.5 5l-63 7v65h321q69 0 115.5 -17t74.5 -46.5t39.5 -68t11.5 -81.5q0 -65 -19 -110.5t-54.5 -74.5t-86.5 -42t-114 -13h-93v-179q0 -12 2.5 -15t13.5 -5l143 -8v-64h-354zM326 357q33 0 63 5t53 20.5t37 45
t14 77.5q0 38 -10.5 63.5t-30.5 40.5t-49 21.5t-66 6.5h-90v-280h79z" />
    <glyph glyph-name="afii10035" unicode="&#x421;" horiz-adv-x="682" 
d="M631 42q-42 -27 -108.5 -40.5t-135.5 -13.5q-92 0 -157.5 27t-107.5 76.5t-61.5 119.5t-19.5 155q0 80 22.5 148t68.5 117.5t114.5 77.5t159.5 28q65 0 124.5 -14.5t98.5 -40.5v-175l-85 6l-17 97q-1 13 -14 17q-23 8 -51.5 13t-60.5 5q-109 0 -173.5 -71t-64.5 -208
q0 -144 61.5 -215.5t169.5 -71.5q31 0 65 3.5t59 13.5q8 2 11 5.5t5 13.5l16 92h81v-165z" />
    <glyph glyph-name="afii10036" unicode="&#x422;" horiz-adv-x="675" 
d="M156 0v65l103 7q11 1 13.5 5t2.5 15v546h-134q-8 0 -11 -1.5t-5 -9.5l-16 -87h-84v184h617v-184h-83l-16 87q-2 8 -5 9.5t-11 1.5h-135v-546q0 -11 2.5 -14.5t13.5 -4.5l110 -8v-65h-362z" />
    <glyph glyph-name="afii10037" unicode="&#x423;" horiz-adv-x="676" 
d="M398 144q-18 -43 -36.5 -73t-40 -48.5t-49 -26.5t-63.5 -8q-34 0 -73 9t-64 24l32 84q16 -9 41.5 -16.5t51.5 -7.5q20 0 33.5 4.5t23 14t17.5 24t16 34.5l-200 471q-4 9 -10 13.5t-15 6.5l-45 11l10 64h253v-64l-74 -9l146 -380h4l150 380l-71 9l10 64h221v-64l-42 -11
q-14 -4 -18.5 -10t-11.5 -22z" />
    <glyph glyph-name="afii10038" unicode="&#x424;" horiz-adv-x="847" 
d="M806 377q0 -72 -24.5 -118t-68 -73t-103.5 -38.5t-131 -13.5v-44q0 -12 2.5 -15.5t13.5 -4.5l74 -6v-64h-288v64l71 5q11 1 13.5 5t2.5 15v44q-73 1 -133.5 10.5t-104 35t-67 70.5t-23.5 117q0 125 84 179.5t244 57.5v42q0 12 -2.5 15t-13.5 5l-73 8v64h287v-64l-71 -7
q-10 -1 -13 -5.5t-3 -14.5v-42q86 -1 148 -13t101.5 -39t58.5 -70t19 -105zM684 369q0 43 -12 71.5t-37.5 45.5t-65 24.5t-93.5 7.5v-299q107 2 157.5 34t50.5 116zM162 364q0 -41 11.5 -68.5t37 -44.5t65 -24.5t94.5 -8.5v299q-106 -1 -157 -35t-51 -118z" />
    <glyph glyph-name="afii10039" unicode="&#x425;" horiz-adv-x="728" 
d="M431 0v64l76 9l-155 222l-152 -222l75 -9v-64h-251v62l55 11q15 4 26 19l190 268l-192 272q-5 8 -10 11.5t-14 5.5l-49 11l10 64h263v-64l-77 -9l145 -213l150 213l-75 9l10 64h229v-64l-46 -11q-9 -2 -14 -6.5t-11 -12.5l-185 -256l205 -282q5 -8 10 -11.5t14 -5.5
l52 -11v-64h-279z" />
    <glyph glyph-name="afii10040" unicode="&#x426;" horiz-adv-x="779" 
d="M650 -151l-19 138q-2 8 -5 10.5t-11 2.5h-565v64l67 8q11 2 13.5 5t2.5 14v541q0 12 -2.5 15t-13.5 5l-67 8v64h275v-64l-59 -7q-11 -2 -13.5 -5.5t-2.5 -14.5v-547h281v546q0 12 -2.5 15t-13.5 5l-61 8v64h273v-64l-63 -7q-11 -2 -13.5 -5.5t-2.5 -14.5v-547h85v-243z
" />
    <glyph glyph-name="afii10041" unicode="&#x427;" horiz-adv-x="726" 
d="M345 66l118 8q11 1 13.5 4.5t2.5 15.5v192q-35 -10 -79.5 -15t-82.5 -5q-58 0 -97.5 13t-64 37t-35 59t-10.5 79v179q0 11 -3 14.5t-13 5.5l-59 7v64h265v-64l-57 -8q-11 -2 -13.5 -5t-2.5 -14v-159q0 -30 5 -52.5t17.5 -37.5t35 -22.5t57.5 -7.5q15 0 33.5 1.5t37.5 3.5
t36.5 6t29.5 8v260q0 11 -3 14.5t-13 5.5l-51 7v64h265v-64l-66 -8q-11 -2 -13.5 -5t-2.5 -14v-541q0 -12 2.5 -15t13.5 -5l66 -8v-64h-332v66z" />
    <glyph glyph-name="afii10042" unicode="&#x428;" horiz-adv-x="1065" 
d="M48 64l67 8q11 2 13.5 5t2.5 14v541q0 12 -2.5 15t-13.5 5l-67 8v64h267v-64l-51 -7q-11 -2 -13.5 -5.5t-2.5 -14.5v-547h224v547q0 11 -2.5 15t-13.5 5l-59 7v64h268v-64l-60 -7q-11 -2 -13.5 -5.5t-2.5 -14.5v-547h228v546q0 12 -2.5 15.5t-13.5 5.5l-53 7v64h265v-64
l-63 -7q-11 -2 -13.5 -5.5t-2.5 -14.5v-544q0 -10 3 -13t13 -4l65 -8v-64h-967v64z" />
    <glyph glyph-name="afii10043" unicode="&#x429;" horiz-adv-x="1056" 
d="M808 86v546q0 12 -3 15.5t-14 5.5l-52 7v64h265v-64l-63 -7q-11 -2 -13.5 -5.5t-2.5 -14.5v-547h85v-243l-83 6l-19 138q-2 8 -5 10.5t-11 2.5h-844v64l67 8q11 2 13.5 5t2.5 14v541q0 12 -2.5 15t-13.5 5l-67 8v64h267v-64l-51 -7q-11 -2 -13.5 -5.5t-2.5 -14.5v-547
h219v547q0 11 -2.5 15t-13.5 5l-59 7v64h268v-64l-60 -7q-11 -2 -13.5 -5.5t-2.5 -14.5v-547h224z" />
    <glyph glyph-name="afii10044" unicode="&#x42a;" horiz-adv-x="784" 
d="M172 64l64 7q11 2 13.5 5.5t2.5 14.5v547h-103q-8 0 -11.5 -2t-5.5 -10l-16 -89l-83 -4v191h449v-67l-97 -8q-11 -1 -14 -4.5t-3 -14.5v-199h137q65 0 109.5 -14.5t72 -41.5t40 -65.5t12.5 -85.5q0 -58 -19.5 -100t-54.5 -69.5t-83.5 -41t-105.5 -13.5h-304v64zM464 87
q33 0 61 6.5t49 22.5t32.5 41.5t11.5 62.5q0 36 -10 60.5t-28.5 39.5t-44.5 21t-58 6h-109v-260h96z" />
    <glyph glyph-name="afii10045" unicode="&#x42b;" horiz-adv-x="982" 
d="M334 87q33 0 61 6t48.5 22t32 42.5t11.5 66.5q0 67 -39 95t-103 28h-98v-260h87zM48 724h313v-64l-97 -9q-11 -1 -14 -4.5t-3 -15.5v-200h122q66 0 111.5 -15t74 -42t41 -64t12.5 -82q0 -61 -19.5 -104.5t-54 -71t-82.5 -40t-105 -12.5h-295v64l63 7q11 2 13.5 5.5
t2.5 14.5v544q0 11 -3 13.5t-13 4.5l-67 7v64zM639 0v64l73 7q11 1 13.5 5t2.5 15v542q0 11 -2.5 15t-13.5 5l-73 7v64h299v-64l-77 -8q-11 -2 -13.5 -5t-2.5 -14v-541q0 -12 2.5 -15t13.5 -5l77 -8v-64h-299z" />
    <glyph glyph-name="afii10046" unicode="&#x42c;" horiz-adv-x="665" 
d="M48 724h313v-64l-97 -9q-11 -1 -14 -4.5t-3 -15.5v-200h134q66 0 111.5 -15t74 -42t41 -64t12.5 -82q0 -61 -19.5 -104.5t-54 -71t-82.5 -40t-105 -12.5h-307v64l63 7q11 2 13.5 5.5t2.5 14.5v544q0 11 -3 13.5t-13 4.5l-67 7v64zM346 87q33 0 61 6t48.5 22t32 42.5
t11.5 66.5q0 67 -39 95t-103 28h-110v-260h99z" />
    <glyph glyph-name="afii10047" unicode="&#x42d;" horiz-adv-x="682" 
d="M55 683q21 12 49 21.5t61 17t68 11.5t69 4q91 0 155 -25.5t105 -73t60 -115t19 -151.5t-22 -154.5t-66.5 -121.5t-113 -79.5t-161.5 -28.5q-66 0 -128 14t-101 40v170h85l16 -97q2 -7 4 -11t10 -6q24 -8 53.5 -13t61.5 -5q101 0 164 59t73 181h-287v88h287
q-8 122 -65 180t-156 58q-35 0 -69 -3.5t-59 -13.5q-8 -2 -11 -5.5t-5 -13.5l-15 -92h-81v165z" />
    <glyph glyph-name="afii10048" unicode="&#x42e;" horiz-adv-x="1060" 
d="M48 0v64l67 7q11 1 13.5 5t2.5 15v542q0 11 -2.5 15t-13.5 5l-67 7v64h287v-64l-71 -8q-11 -2 -13.5 -5t-2.5 -14v-221h147q6 71 29 130.5t62.5 103t96.5 67.5t132 24q81 0 138.5 -28.5t94 -77.5t54 -115t17.5 -141q0 -88 -19.5 -159.5t-59 -122t-98.5 -78t-139 -27.5
q-77 0 -134 25t-94.5 69.5t-57.5 106t-23 135.5h-146v-232q0 -12 2.5 -15t13.5 -5l71 -8v-64h-287zM707 83q88 0 140 67.5t52 215.5q0 139 -48.5 207.5t-137.5 68.5t-144 -70t-55 -210q0 -143 51 -211t142 -68z" />
    <glyph glyph-name="afii10049" unicode="&#x42f;" horiz-adv-x="716" 
d="M27 64l65 11q14 2 19 7t11 19l61 135q17 37 34.5 61.5t52.5 37.5v2q-33 5 -62 18t-51 35.5t-35 54t-13 73.5q0 58 21 97.5t56 63.5t80.5 34.5t94.5 10.5h305v-65l-63 -7q-11 -2 -13.5 -6t-2.5 -16v-539q0 -11 2.5 -14.5t13.5 -5.5l63 -7v-64h-272v64l61 8q11 2 13.5 5.5
t2.5 15.5v209h-90q-26 0 -40 -11.5t-27 -37.5q-11 -22 -23.5 -51t-26.5 -62t-28 -69t-28 -71h-181v64zM471 637h-97q-31 0 -57 -6t-45.5 -20t-30.5 -38t-11 -59q0 -40 14 -65t37.5 -38.5t54 -18.5t62.5 -5h73v250z" />
    <glyph glyph-name="afii10065" unicode="&#x430;" horiz-adv-x="547" 
d="M373 0l-10 59l-3 1q-33 -32 -75 -52t-101 -20q-47 0 -75.5 14.5t-43.5 35.5t-19.5 46t-4.5 46q0 75 46 112.5t138 45.5l127 10v51q0 24 -3 42t-12 30t-26.5 18.5t-46.5 6.5q-21 0 -38 -1.5t-29 -9t-18.5 -22t-6.5 -40.5l-108 10q0 48 19.5 76.5t49.5 43.5t65.5 19.5
t67.5 4.5q54 0 92 -8.5t62 -29t34.5 -55t10.5 -86.5v-257q0 -12 2.5 -15t13.5 -5l49 -7v-64h-157zM352 225l-95 -8q-57 -5 -77.5 -22.5t-20.5 -53.5t16.5 -50t47.5 -14q37 0 71.5 18.5t57.5 41.5v88z" />
    <glyph glyph-name="afii10066" unicode="&#x431;" horiz-adv-x="567" 
d="M281 -12q-67 0 -112.5 22t-73.5 63t-40.5 100t-12.5 133q0 84 10.5 152t40.5 118t84 83.5t141 48.5q32 6 50 9t28 6t13.5 7.5t6.5 13.5l80 3q3 -37 -4 -60.5t-24 -37.5t-42.5 -21t-59.5 -11q-66 -9 -110 -22.5t-71.5 -37t-42 -60.5t-21.5 -92q1 0 2 -1q25 48 74 75.5
t112 27.5q58 0 99 -17.5t67.5 -50t38.5 -78.5t12 -103q0 -60 -14 -109.5t-43.5 -85.5t-76 -55.5t-111.5 -19.5zM284 71q62 0 92 44.5t30 138.5q0 90 -27.5 128t-86.5 38q-61 0 -94.5 -42.5t-33.5 -123.5q0 -93 29 -138t91 -45z" />
    <glyph glyph-name="afii10067" unicode="&#x432;" horiz-adv-x="551" 
d="M36 0v65l47 5q8 1 10 3.5t2 10.5v348q0 8 -2 10.5t-10 3.5l-47 5v66h287q48 0 79 -10t50 -27t26.5 -40.5t7.5 -49.5q0 -51 -28 -79.5t-63 -39.5v-2q64 -7 94 -40t30 -87q0 -39 -15 -66.5t-42 -44t-64 -24t-81 -7.5h-281zM300 80q46 0 73.5 14t27.5 58q0 23 -7.5 37.5
t-20 22.5t-29.5 11.5t-36 3.5h-99v-147h91zM286 301q18 0 34 3t29 11t20.5 22t7.5 35q0 40 -22.5 52t-60.5 12h-85v-135h77z" />
    <glyph glyph-name="afii10068" unicode="&#x433;" horiz-adv-x="465" 
d="M36 0v65l47 5q8 1 10 3.5t2 10.5v348q0 8 -2.5 10.5t-10.5 3.5l-46 5v66h401v-175l-84 3l-13 83q-1 8 -11 8h-119v-352q0 -8 2 -10.5t10 -2.5l106 -6v-65h-292z" />
    <glyph glyph-name="afii10069" unicode="&#x434;" horiz-adv-x="611" 
d="M138 0q-9 0 -11 -9l-15 -117l-82 -5v214h44q23 25 38.5 52t25 60t14 75t4.5 96v66q0 8 -2 10.5t-10 3.5l-50 5v66h479v-66l-49 -5q-8 -2 -10 -4.5t-2 -10.5v-348h62v-214l-83 5l-14 117q-3 9 -11 9h-328zM264 361q0 -90 -15 -158t-53 -120h200v351h-132v-73z" />
    <glyph glyph-name="afii10070" unicode="&#x435;" horiz-adv-x="518" 
d="M474 35q-42 -21 -89.5 -34t-102.5 -13q-70 0 -117 21t-76 58t-41.5 86.5t-12.5 107.5q0 68 18.5 118t50.5 83t75 49t92 16q47 0 86 -13t67 -42t43.5 -75t15.5 -111q0 -10 -0.5 -27t-2.5 -31h-323q4 -70 34.5 -109t103.5 -39q37 0 69.5 8t77.5 27zM368 311q0 37 -8 61.5
t-21.5 39.5t-31.5 21.5t-38 6.5q-43 0 -75 -30t-36 -99h210z" />
    <glyph glyph-name="afii10072" unicode="&#x436;" horiz-adv-x="819" 
d="M467 301h30q14 0 24.5 2t18.5 9.5t15 21.5t15 38l27 79q14 38 37.5 57t69.5 19q14 0 33.5 -2.5t31.5 -7.5l-8 -71q-16 3 -27 3q-16 -1 -24.5 -10t-16.5 -30l-31 -84q-9 -26 -22.5 -37.5t-30.5 -16.5v-1q17 -5 32.5 -20t31.5 -46l57 -113q5 -8 9 -12.5t14 -6.5l53 -8v-64
h-164q-24 57 -47.5 106t-41.5 78q-15 25 -28.5 34.5t-37.5 9.5h-20v-143q0 -8 2 -11t10 -4l43 -5v-65h-222v65l41 5q11 2 13 5.5t2 12.5v140h-36q-31 0 -42 -11t-25 -34q-17 -28 -39 -75.5t-44 -107.5h-157v64l53 8q6 1 10.5 3.5t9.5 12.5l58 114q15 30 31 46.5t33 21.5v1
q-16 5 -31 19t-26 44l-27 75q-8 23 -17 31t-26 9q-10 0 -27 -3l-4 71q12 4 33 7t36 3q42 0 63 -17.5t36 -55.5l32 -82q9 -24 16.5 -38t15.5 -21.5t17.5 -9.5t24.5 -2h32v118q0 15 -13 19l-45 16l10 63h159v-216z" />
    <glyph glyph-name="afii10073" unicode="&#x437;" horiz-adv-x="464" 
d="M242 527q88 0 134 -33.5t46 -94.5q0 -52 -30.5 -84t-69.5 -44v-3q49 -9 82 -37t33 -88q0 -37 -16.5 -66t-45.5 -48.5t-68.5 -30t-85.5 -10.5q-57 0 -112 15t-91 47l45 75q21 -18 61.5 -34.5t88.5 -16.5q22 0 42 4t35.5 13t24.5 24t9 36q0 35 -24.5 51.5t-64.5 16.5h-95
v80h54q60 0 89 23.5t29 58.5q0 36 -25 51.5t-62 15.5q-20 0 -37 -2.5t-32 -7.5q-9 -4 -12 -13l-12 -60l-82 -6v125q14 7 35 14.5t46.5 14t54 10.5t56.5 4z" />
    <glyph glyph-name="afii10074" unicode="&#x438;" horiz-adv-x="638" 
d="M378 0v64l45 5q8 1 10 4t2 11v289h-4l-217 -373h-178v64l47 5q8 1 10 4t2 11v348q0 8 -2 10.5t-10 3.5l-47 5v66h226v-66l-48 -5q-8 -2 -10 -4t-2 -10v-301h4l223 386h176v-66l-50 -5q-8 -2 -10 -4t-2 -10v-348q0 -8 2 -10.5t10 -3.5l50 -6v-64h-227z" />
    <glyph glyph-name="afii10075" unicode="&#x439;" horiz-adv-x="638" 
d="M378 0v64l45 5q8 1 10 4t2 11v289h-4l-217 -373h-178v64l47 5q8 1 10 4t2 11v348q0 8 -2 10.5t-10 3.5l-47 5v66h226v-66l-48 -5q-8 -2 -10 -4t-2 -10v-301h4l223 386h176v-66l-50 -5q-8 -2 -10 -4t-2 -10v-348q0 -8 2 -10.5t10 -3.5l50 -6v-64h-227zM339 642q38 0 58 23
t31 65l76 -23q-17 -65 -56 -100.5t-111 -35.5t-111.5 36t-53.5 99l81 25q7 -39 26.5 -64t59.5 -25z" />
    <glyph glyph-name="afii10076" unicode="&#x43a;" horiz-adv-x="572" 
d="M251 298q14 0 24 2t18.5 8.5t16 19t15.5 34.5l27 71q17 46 43.5 69.5t77.5 23.5q17 0 30.5 -2.5t25.5 -6.5l-7 -73q-15 3 -27 3q-19 -1 -28 -10.5t-20 -35.5l-27 -69q-12 -31 -26.5 -44.5t-30.5 -18.5v-2q16 -5 30.5 -19t30.5 -45l54 -107q5 -11 10 -16.5t16 -7.5l53 -8
v-64h-156q-20 53 -44 101t-38 74q-8 16 -15 26t-15 15t-18 7t-24 2h-37v-142q0 -8 2 -10t10 -3l43 -5v-65h-229v65l47 5q8 1 10 3.5t2 10.5v349q0 8 -2 10.5t-10 3.5l-47 5v65h232v-65l-46 -5q-8 -1 -10 -4t-2 -12v-133h41z" />
    <glyph glyph-name="afii10077" unicode="&#x43b;" horiz-adv-x="599" 
d="M335 0v64l41 5q8 1 10 4t2 11v350h-130q-2 -71 -4.5 -125t-8.5 -106q-6 -50 -18 -89t-35 -67t-58 -43.5t-88 -18.5l-21 93q26 2 45.5 10.5t33.5 26.5t23 47.5t14 73.5q5 35 8.5 88t5.5 106q0 15 -13 16l-49 5v66h472v-66l-50 -5q-8 -2 -10 -4.5t-2 -10.5v-346q0 -8 2 -11
t10 -4l50 -6v-64h-230z" />
    <glyph glyph-name="afii10078" unicode="&#x43c;" horiz-adv-x="733" 
d="M455 0v64l61 5q12 1 12 14v290h-2l-114 -248h-108l-115 250h-1v-291q0 -8 1.5 -10.5t9.5 -3.5l64 -6v-64h-227v64l47 6q12 1 12 14v349q0 8 -2 10.5t-10 3.5l-47 5v65h197l132 -300h1l136 300h197v-65l-49 -5q-8 -1 -10.5 -4t-2.5 -14v-345q0 -13 12 -14l50 -6v-64h-244z
" />
    <glyph glyph-name="afii10079" unicode="&#x43d;" horiz-adv-x="643" 
d="M378 0v64l42 5q8 1 10 4t2 11v141h-222v-141q0 -8 2 -10.5t10 -3.5l46 -6v-64h-232v64l47 5q8 1 10 4t2 11v348q0 8 -2 10.5t-10 3.5l-47 5v66h232v-66l-44 -5q-8 -2 -11 -4t-3 -10v-124h222v124q0 8 -2 10.5t-10 3.5l-42 5v66h231v-66l-48 -5q-8 -2 -10.5 -4.5
t-2.5 -10.5v-347q0 -8 1.5 -10.5t9.5 -3.5l50 -6v-64h-231z" />
    <glyph glyph-name="afii10080" unicode="&#x43e;" horiz-adv-x="573" 
d="M284 -12q-69 0 -116.5 20t-77 55t-42.5 84t-13 106q0 62 15.5 112.5t48 86.5t81 55.5t114.5 19.5t112.5 -19.5t75.5 -54t42.5 -82.5t13.5 -105q0 -63 -15 -114.5t-46 -87.5t-79 -56t-114 -20zM287 73q64 0 98 44t34 143q0 96 -32 138t-96 42t-100 -42t-36 -139
t33.5 -141.5t98.5 -44.5z" />
    <glyph glyph-name="afii10081" unicode="&#x43f;" horiz-adv-x="625" 
d="M365 0v64l37 5q8 1 10.5 4t2.5 11v349h-205v-349q0 -8 2 -10.5t10 -3.5l41 -6v-64h-227v64l47 5q8 1 10 3.5t2 10.5v349q0 8 -2 10.5t-10 3.5l-47 5v66h555v-66l-49 -5q-8 -2 -10 -4t-2 -10v-348q0 -8 2 -10.5t10 -3.5l49 -6v-64h-226z" />
    <glyph glyph-name="afii10082" unicode="&#x440;" horiz-adv-x="610" 
d="M39 -212v65l41 6q11 2 14 5.5t3 15.5v533q0 16 -13 21l-55 19l10 64h149l9 -56l3 -1q36 29 80 48t96 19q42 0 77 -14t60 -44t39 -78t14 -116q0 -48 -9 -99t-32 -93t-63 -68.5t-102 -26.5q-42 0 -80 13.5t-70 38.5v-160q0 -12 3 -15.5t14 -4.5l98 -8v-64h-286zM212 133
q23 -20 54 -36.5t69 -16.5q60 0 86.5 50.5t26.5 137.5q0 46 -8 77.5t-22.5 51t-33.5 28t-41 8.5q-20 0 -39.5 -5.5t-37 -13.5t-31.5 -17t-23 -17v-247z" />
    <glyph glyph-name="afii10083" unicode="&#x441;" horiz-adv-x="495" 
d="M465 33q-32 -20 -79.5 -32.5t-99.5 -12.5q-66 0 -113 19.5t-78 55t-45.5 84t-14.5 105.5q0 71 20 122.5t55 85.5t84 50.5t107 16.5q57 0 100 -12.5t63 -23.5v-142l-83 4l-12 66q-1 10 -11 14t-26.5 6.5t-35.5 2.5q-29 0 -54.5 -9.5t-45 -31t-30.5 -56t-11 -84.5
q0 -51 11 -85.5t31 -56t47.5 -30.5t60.5 -9q38 0 70.5 9t56.5 22z" />
    <glyph glyph-name="afii10084" unicode="&#x442;" horiz-adv-x="540" 
d="M125 0v65l76 6q8 0 10.5 3t2.5 11v349h-81q-11 0 -14 -10l-13 -77h-81v170h491v-170h-80l-13 77q-1 10 -12 10h-82v-350q0 -8 2 -10.5t10 -3.5l82 -5v-65h-298z" />
    <glyph glyph-name="afii10085" unicode="&#x443;" horiz-adv-x="597" 
d="M56 -118q14 -7 35 -12t42 -5q40 0 59.5 20.5t38.5 67.5l21 49l-184 423q-4 9 -8 12t-13 5l-41 9l13 66h233v-66l-65 -8l124 -313h4l125 313l-66 8l11 66h206v-66l-33 -5q-10 -2 -15.5 -5t-9.5 -12l-205 -498q-12 -30 -27.5 -57.5t-37 -49t-51 -34t-70.5 -12.5
q-27 0 -56 6.5t-58 20.5z" />
    <glyph glyph-name="afii10086" unicode="&#x444;" horiz-adv-x="774" 
d="M737 269q0 -139 -71 -207.5t-221 -73.5v-109q0 -12 2.5 -15.5t13.5 -4.5l58 -7v-64h-260v65l55 6q11 2 13.5 6t2.5 15v108q-85 1 -141.5 20t-90.5 52.5t-47.5 81.5t-13.5 106q0 80 24 133t64 84.5t93.5 45t111.5 14.5v126q0 17 -13 21l-57 19l10 64h175v-230
q144 0 218 -60.5t74 -195.5zM619 264q0 56 -13 89.5t-36 52t-55 25t-70 6.5v-358q30 0 61 5.5t56 24.5t41 55.5t16 99.5zM155 245q0 -57 16 -90t41 -50t56 -22.5t61 -5.5v359q-33 -1 -64.5 -7.5t-56 -27t-39 -57.5t-14.5 -99z" />
    <glyph glyph-name="afii10087" unicode="&#x445;" horiz-adv-x="586" 
d="M320 0v64l56 9l-97 127l-103 -127l61 -9v-64h-225v63l46 9q11 2 16.5 6t13.5 12l137 164l-137 170q-6 7 -10.5 10.5t-13.5 6.5l-42 11l10 65h231v-65l-56 -8l93 -119l101 119l-61 8l10 65h205v-65l-44 -10q-9 -3 -15 -7.5t-12 -11.5l-129 -152l144 -180q7 -8 12.5 -12
t14.5 -6l50 -9v-64h-256z" />
    <glyph glyph-name="afii10088" unicode="&#x446;" horiz-adv-x="611" 
d="M497 -125l-14 113q-1 12 -14 12h-434v64l50 6q8 1 10 3.5t2 10.5v347q0 9 -2.5 11.5t-10.5 4.5l-49 5v65h227v-65l-37 -5q-13 -1 -13 -16v-348h187v348q0 9 -2.5 12t-11.5 5l-36 4v65h224v-65l-46 -5q-8 -1 -10 -4t-2 -11v-349h64v-214z" />
    <glyph glyph-name="afii10089" unicode="&#x447;" horiz-adv-x="578" 
d="M255 66l100 6q8 1 10.5 3.5t2.5 11.5v108q-24 -8 -60.5 -11.5t-63.5 -3.5q-48 0 -79.5 10.5t-50.5 29t-26.5 44t-7.5 55.5v114q0 13 -12 14l-41 6v64h217v-64l-36 -5q-8 -1 -10.5 -4t-2.5 -11v-99q0 -36 15 -55.5t61 -19.5q22 0 51 3.5t46 9.5v161q0 7 -2 10.5t-10 4.5
l-33 5v64h218v-65l-46 -5q-8 -1 -10.5 -4t-2.5 -11v-347q0 -8 2.5 -11t10.5 -4l47 -5v-65h-287v66z" />
    <glyph glyph-name="afii10090" unicode="&#x448;" horiz-adv-x="825" 
d="M33 65l50 6q8 1 10 3.5t2 10.5v348q0 8 -2 10t-10 4l-50 5v65h218v-65l-33 -5q-8 -1 -10 -3.5t-2 -10.5v-350h148v350q0 12 -12 15l-36 4v65h208v-65l-37 -5q-8 -1 -9.5 -3.5t-1.5 -10.5v-350h151v348q0 9 -2 11.5t-10 4.5l-36 5v65h218v-65l-47 -5q-8 -1 -9.5 -3.5
t-1.5 -10.5v-349q0 -8 2 -10t9 -3l49 -6v-65h-756v65z" />
    <glyph glyph-name="afii10091" unicode="&#x449;" horiz-adv-x="821" 
d="M33 65l50 6q8 1 10 3.5t2 10.5v348q0 8 -2 10t-10 4l-50 5v65h218v-65l-33 -5q-8 -1 -10 -3.5t-2 -10.5v-350h146v350q0 12 -12 15l-36 4v65h208v-65l-36 -5q-8 -1 -10 -3.5t-2 -10.5v-350h149v348q0 9 -2.5 11.5t-10.5 4.5l-35 5v65h218v-65l-47 -5q-8 -1 -9.5 -3.5
t-1.5 -10.5v-350h64v-214l-82 6l-15 116q-1 9 -11 9h-648v65z" />
    <glyph glyph-name="afii10092" unicode="&#x44a;" horiz-adv-x="611" 
d="M136 65l48 5q11 1 11 13v351h-62q-12 0 -15 -13l-10 -73l-83 -4v173h369v-66l-72 -6q-8 -1 -10 -3t-2 -10v-115h96q49 0 83 -10.5t55 -30t30 -47.5t9 -62q0 -44 -15 -75.5t-42 -52t-63.5 -30t-79.5 -9.5h-247v65zM372 80q43 0 69 18.5t26 65.5q0 25 -7.5 40.5t-21 23.5
t-33.5 11t-44 3h-51v-162h62z" />
    <glyph glyph-name="afii10093" unicode="&#x44b;" horiz-adv-x="777" 
d="M95 432q0 8 -2.5 11t-9.5 4l-52 5v65h262v-65l-70 -6q-8 -1 -10.5 -3.5t-2.5 -11.5v-115h92q78 0 127 -35t49 -113q0 -47 -16.5 -79t-46 -52t-69 -28.5t-85.5 -8.5h-225v64l49 6q10 1 10 11v351zM501 0v64l50 5q8 1 10.5 3t2.5 13v346q0 8 -2.5 11t-10.5 4l-52 5v66h247
v-66l-55 -6q-7 -1 -9.5 -3.5t-2.5 -11.5v-345q0 -8 1.5 -11t10.5 -4l55 -6v-64h-245zM266 80q43 0 70 18t27 65q0 48 -28.5 63.5t-71.5 15.5h-53v-162h56z" />
    <glyph glyph-name="afii10094" unicode="&#x44c;" horiz-adv-x="514" 
d="M95 432q0 8 -2.5 11t-9.5 4l-52 5v65h262v-65l-70 -6q-8 -1 -10.5 -3t-2.5 -10v-117h99q79 0 128 -35t49 -113q0 -43 -15 -75t-42 -52.5t-64 -30.5t-80 -10h-249v64l49 6q10 1 10 11v351zM274 80q45 0 70.5 18.5t25.5 64.5q0 48 -28 63.5t-71 15.5h-61v-162h64z" />
    <glyph glyph-name="afii10095" unicode="&#x44d;" horiz-adv-x="545" 
d="M193 300h194q-8 73 -45.5 108.5t-101.5 35.5q-23 0 -43.5 -3.5t-33.5 -8.5q-9 -3 -11 -6.5t-4 -12.5l-10 -61h-81v135q15 8 37 15t48 12.5t55 9t57 3.5q68 0 116.5 -18t79.5 -52t45.5 -82t14.5 -107q0 -61 -17 -112.5t-51 -89t-86 -58t-123 -20.5q-66 0 -117 16.5
t-77 37.5l38 81q20 -14 60.5 -29t90.5 -15q66 0 107 34t50 104h-192v83z" />
    <glyph glyph-name="afii10096" unicode="&#x44e;" horiz-adv-x="809" 
d="M540 -12q-55 0 -96 16.5t-68.5 46.5t-42.5 72t-20 93h-103v-131q0 -8 1.5 -11t10.5 -4l53 -6v-64h-244v64l51 6q8 1 10.5 3.5t2.5 10.5v347q0 8 -2.5 11t-10.5 4l-51 5v66h244v-66l-53 -6q-8 -1 -10 -3t-2 -11v-134h103q4 52 20.5 94.5t46 72.5t72.5 46.5t99 16.5
q62 0 104.5 -19.5t69 -54t38 -82.5t11.5 -105q0 -63 -13 -114.5t-41.5 -87.5t-73 -56t-106.5 -20zM543 73q55 0 84 44t29 143q0 96 -26.5 138t-82.5 42t-86.5 -42t-30.5 -139t28 -141.5t85 -44.5z" />
    <glyph glyph-name="afii10097" unicode="&#x44f;" horiz-adv-x="590" 
d="M382 436h-94q-38 0 -63.5 -16t-25.5 -58q0 -22 8 -37t22 -23.5t32 -12t38 -3.5h83v150zM25 62l53 9q9 2 12.5 5t7.5 13l36 82q11 26 24.5 43t39.5 26v1q-22 4 -43 13.5t-37 25t-25.5 37.5t-9.5 51q0 42 15.5 70.5t41 46t59 25t70.5 7.5h286v-65l-48 -5q-6 -1 -8 -3
t-2 -10v-352q0 -11 10 -12l48 -6v-64h-224v64l41 6q7 1 8.5 3.5t1.5 9.5v126h-85q-21 0 -30.5 -8.5t-17.5 -27.5q-15 -35 -33 -80t-36 -93h-155v62z" />
    <glyph glyph-name="afii10071" unicode="&#x451;" horiz-adv-x="518" 
d="M226 663q0 -28 -17 -44.5t-45 -16.5t-45.5 16.5t-17.5 44.5t17.5 44t45.5 16t45 -16t17 -44zM430 663q0 -28 -17 -44.5t-45 -16.5t-45 16.5t-17 44.5t17 44t45 16t45 -16t17 -44zM474 35q-42 -21 -89.5 -34t-102.5 -13q-70 0 -117 21t-76 58t-41.5 86.5t-12.5 107.5
q0 68 18.5 118t50.5 83t75 49t92 16q47 0 86 -13t67 -42t43.5 -75t15.5 -111q0 -10 -0.5 -27t-2.5 -31h-323q4 -70 34.5 -109t103.5 -39q37 0 69.5 8t77.5 27zM368 311q0 37 -8 61.5t-21.5 39.5t-31.5 21.5t-38 6.5q-43 0 -75 -30t-36 -99h210z" />
    <glyph glyph-name="afii10099" unicode="&#x452;" horiz-adv-x="603" 
d="M235 -117q38 -12 68 -12q79 0 107.5 79t28.5 242q0 64 -5.5 105.5t-16.5 65.5t-28.5 33t-40.5 9q-20 0 -40.5 -6t-38.5 -14.5t-32 -17.5t-23 -15v-261q0 -12 2.5 -15t13.5 -5l53 -7v-64h-248v65l48 6q11 2 13.5 5.5t2.5 14.5v466h-65v68h65v26q0 17 -13 21l-57 19l10 64
h174v-130h172v-68h-172v-119q37 26 79 43t87 17q60 0 94.5 -27.5t52 -72t22 -99.5t4.5 -110q0 -88 -11 -163.5t-37.5 -130.5t-71 -86.5t-112.5 -31.5q-23 0 -51 4.5t-54 14.5z" />
    <glyph glyph-name="afii10100" unicode="&#x453;" horiz-adv-x="465" 
d="M173 564l-46 43l154 168l69 -67zM36 0v65l47 5q8 1 10 3.5t2 10.5v348q0 8 -2.5 10.5t-10.5 3.5l-46 5v66h401v-175l-84 3l-13 83q-1 8 -11 8h-119v-352q0 -8 2 -10.5t10 -2.5l106 -6v-65h-292z" />
    <glyph glyph-name="afii10101" unicode="&#x454;" horiz-adv-x="530" 
d="M352 219h-194q11 -74 48 -108t105 -34q43 0 84.5 14t64.5 31l39 -77q-42 -29 -95.5 -43t-104.5 -14q-70 0 -120.5 19.5t-82 54.5t-46.5 84t-15 108q0 60 17 110t52 86t87.5 56.5t123.5 20.5q49 0 97 -10.5t78 -30.5v-139l-83 4l-10 64q-1 13 -12 17q-12 4 -30 7t-41 3
q-65 0 -106 -34t-49 -106h193v-83z" />
    <glyph glyph-name="afii10102" unicode="&#x455;" horiz-adv-x="471" 
d="M340 368l-11 58q-1 10 -11 14q-10 3 -29.5 6.5t-42.5 3.5q-48 0 -71.5 -16.5t-23.5 -46.5q0 -20 9.5 -33t26 -21.5t38 -14t45.5 -11.5q30 -7 60 -16.5t54 -26.5t39 -44t15 -70q0 -44 -17 -75t-46 -50.5t-67.5 -28t-81.5 -8.5q-32 0 -63 4t-56.5 9t-43.5 11.5t-25 10.5
v136l83 -5l10 -61q2 -6 3.5 -9t8.5 -5q10 -3 33 -8.5t57 -5.5q47 0 73.5 15.5t26.5 53.5q0 21 -11 34t-29.5 21.5t-42 13.5t-48.5 11q-28 6 -56 15t-50.5 25t-36 41.5t-13.5 65.5q0 45 17.5 77t46.5 51.5t67 28.5t78 9q28 0 54 -3t48.5 -7.5t39.5 -9.5t26 -9v-135z" />
    <glyph glyph-name="afii10103" unicode="&#x456;" horiz-adv-x="305" 
d="M219 690q0 -36 -20 -55.5t-55 -19.5q-36 0 -55.5 19.5t-19.5 55.5q0 35 19.5 54t55.5 19q35 0 55 -19t20 -54zM23 0v63l60 8q11 2 13.5 5.5t2.5 14.5v322q0 17 -13 21l-55 19l10 64h173v-426q0 -12 2.5 -15t13.5 -5l59 -7v-64h-266z" />
    <glyph glyph-name="afii10104" unicode="&#x457;" horiz-adv-x="325" 
d="M1 685q0 28 17 44.5t45 16.5t45 -16.5t17 -44.5t-17 -44.5t-45 -16.5t-45 16.5t-17 44.5zM164 685q0 28 17 44.5t45 16.5t45 -16.5t17 -44.5t-17 -44.5t-45 -16.5t-45 16.5t-17 44.5zM34 0v65l60 6q11 2 13.5 5.5t2.5 14.5v322q0 17 -13 21l-56 19l10 64h174v-426
q0 -12 2.5 -15t13.5 -5l59 -7v-64h-266z" />
    <glyph glyph-name="afii10105" unicode="&#x458;" horiz-adv-x="294" 
d="M97 413q0 9 -2 13.5t-10 7.5l-62 19l10 64h179v-577q0 -85 -39 -124t-117 -39q-52 0 -92.5 15.5t-57.5 30.5l38 68q13 -9 37.5 -18.5t51.5 -9.5q37 0 50.5 22t13.5 76v452zM218 690q0 -36 -20 -55.5t-55 -19.5t-55 19.5t-20 55.5q0 35 20 54t55 19t55 -19t20 -54z" />
    <glyph glyph-name="afii10106" unicode="&#x459;" horiz-adv-x="801" 
d="M94 517h486v-65l-70 -6q-8 -1 -10.5 -2.5t-2.5 -9.5v-118h100q78 0 127 -35t49 -113q0 -43 -15 -75t-42 -52.5t-63.5 -30.5t-79.5 -10h-250v64l49 6q10 1 10 11v353h-125q0 -67 -4 -123t-10 -108q-6 -50 -17.5 -89t-34 -66.5t-57.5 -43.5t-88 -19l-19 93q26 3 45 11
t33 25t23 45.5t14 72.5q5 35 8.5 89t5.5 109q0 15 -13 16l-49 5v66zM561 80q45 0 71 18.5t26 64.5q0 48 -28.5 63.5t-71.5 15.5h-61v-162h64z" />
    <glyph glyph-name="afii10107" unicode="&#x45a;" horiz-adv-x="811" 
d="M350 0v64l40 5q8 1 10 3t2 9v142h-192v-139q0 -8 2 -10.5t10 -3.5l44 -6v-64h-230v64l47 5q8 1 10 4t2 11v348q0 8 -2 10.5t-10 3.5l-47 5v66h230v-66l-42 -5q-8 -2 -11 -4t-3 -10v-130h192v131q0 8 -2 10t-10 3l-40 5v66h251v-65l-71 -6q-8 -1 -10.5 -3t-2.5 -10v-131
h86q82 0 130.5 -32.5t48.5 -109.5q0 -82 -53.5 -121t-147.5 -39h-231zM577 80q42 0 67 16t25 58q0 44 -28.5 57t-75.5 13h-48v-144h60z" />
    <glyph glyph-name="afii10108" unicode="&#x45b;" horiz-adv-x="632" 
d="M358 0v63l47 7q12 2 14.5 6.5t2.5 14.5v212q0 18 -2 37t-9 35.5t-21 27t-39 10.5q-37 0 -73 -17t-64 -37v-268q0 -12 2.5 -15t13.5 -5l53 -7v-64h-248v63l48 8q11 2 13.5 5.5t2.5 14.5v465h-62v76h62v19q0 17 -13 21l-57 19l10 64h174v-123h175v-76h-175v-113
q38 26 79 45t94 19q81 0 116 -49t35 -132v-235q0 -12 2.5 -15t13.5 -5l55 -7v-64h-250z" />
    <glyph glyph-name="afii10109" unicode="&#x45c;" horiz-adv-x="572" 
d="M277 564l-46 43l154 168l69 -67zM251 298q14 0 24 2t18.5 8.5t16 19t15.5 34.5l27 71q17 46 43.5 69.5t77.5 23.5q17 0 30.5 -2.5t25.5 -6.5l-7 -73q-15 3 -27 3q-19 -1 -28 -10.5t-20 -35.5l-27 -69q-12 -31 -26.5 -44.5t-30.5 -18.5v-2q16 -5 30.5 -19t30.5 -45
l54 -107q5 -11 10 -16.5t16 -7.5l53 -8v-64h-156q-20 53 -44 101t-38 74q-8 16 -15 26t-15 15t-18 7t-24 2h-37v-142q0 -8 2 -10t10 -3l43 -5v-65h-229v65l47 5q8 1 10 3.5t2 10.5v349q0 8 -2 10.5t-10 3.5l-47 5v65h232v-65l-46 -5q-8 -1 -10 -4t-2 -12v-133h41z" />
    <glyph glyph-name="afii10110" unicode="&#x45e;" horiz-adv-x="597" 
d="M56 -118q14 -7 35 -12t42 -5q40 0 59.5 20.5t38.5 67.5l21 49l-184 423q-4 9 -8 12t-13 5l-41 9l13 66h233v-66l-65 -8l124 -313h4l125 313l-66 8l11 66h206v-66l-33 -5q-10 -2 -15.5 -5t-9.5 -12l-205 -498q-12 -30 -27.5 -57.5t-37 -49t-51 -34t-70.5 -12.5
q-27 0 -56 6.5t-58 20.5zM320 642q38 0 58 23t31 65l76 -23q-17 -65 -56 -100.5t-111 -35.5t-111.5 36t-53.5 99l81 25q7 -39 26.5 -64t59.5 -25z" />
    <glyph glyph-name="afii10193" unicode="&#x45f;" horiz-adv-x="601" 
d="M35 0v61l48 6q8 2 10 4.5t2 10.5v352q0 8 -2 11t-10 4l-48 6v61h224v-61l-36 -5q-13 -1 -13 -16v-350h181v351q0 8 -2 10.5t-10 4.5l-38 5v61h224v-61l-47 -5q-8 -1 -9.5 -3.5t-1.5 -10.5v-355q0 -8 1.5 -10.5t9.5 -3.5l47 -6v-61h-201q-7 0 -9 -2t-3 -7l-12 -125l-76 4
l-15 121q-1 9 -10 9h-204z" />
    <glyph glyph-name="afii10050" unicode="&#x490;" horiz-adv-x="563" 
d="M52 0v64l63 7q11 2 13.5 5.5t2.5 14.5v541q0 11 -2.5 15t-13.5 5l-63 7v65h372q14 0 17 15l17 90l83 5v-196h-293v-546q0 -12 2.5 -15t13.5 -5l144 -8v-64h-356z" />
    <glyph glyph-name="afii10098" unicode="&#x491;" horiz-adv-x="442" 
d="M37 0v61l46 5q8 1 10 3.5t2 10.5v355q0 8 -2 10.5t-10 3.5l-46 5v62h275q7 0 9 2t4 8l14 69l84 6v-167h-213v-353q0 -8 1.5 -10.5t9.5 -3.5l105 -6v-61h-289z" />
    <glyph glyph-name="thinspace" unicode="&#x2009;" horiz-adv-x="125" 
 />
    <glyph glyph-name="endash" unicode="&#x2013;" horiz-adv-x="499" 
d="M0 239v84h499v-84h-499z" />
    <glyph glyph-name="emdash" unicode="&#x2014;" horiz-adv-x="1000" 
d="M0 239v84h1000v-84h-1000z" />
    <glyph glyph-name="quoteleft" unicode="&#x2018;" horiz-adv-x="200" 
d="M153 547q-24 0 -44.5 2.5t-35.5 9.5t-23.5 19t-8.5 33q0 14 4.5 27.5t11.5 27.5l50 101l52 -17l-25 -97q-3 -8 5 -11l34 -12z" />
    <glyph glyph-name="quoteright" unicode="&#x2019;" horiz-adv-x="200" 
d="M43 563l25 97q3 8 -5 11l-34 12l20 84q24 -1 44.5 -3.5t35.5 -9t23.5 -19t8.5 -33.5q0 -14 -4.5 -27t-11.5 -27l-51 -101z" />
    <glyph glyph-name="quotesinglbase" unicode="&#x201a;" horiz-adv-x="194" 
d="M49 -111l25 97q1 8 -5 11l-34 12l20 84q24 -1 44.5 -3.5t35.5 -9t23.5 -19t8.5 -33.5q0 -14 -5 -27t-12 -27l-50 -101z" />
    <glyph glyph-name="quotedblleft" unicode="&#x201c;" horiz-adv-x="360" 
d="M153 547q-24 0 -44.5 2.5t-35.5 9.5t-23.5 19t-8.5 33q0 14 4.5 27.5t11.5 27.5l50 101l52 -17l-25 -97q-3 -8 5 -11l34 -12zM313 547q-24 0 -44.5 2.5t-35.5 9.5t-23.5 19t-8.5 33q0 14 4.5 27.5t11.5 27.5l50 101l52 -17l-25 -97q-3 -8 5 -11l34 -12z" />
    <glyph glyph-name="quotedblright" unicode="&#x201d;" horiz-adv-x="360" 
d="M43 563l25 97q3 8 -5 11l-34 12l20 84q24 -1 44.5 -3.5t35.5 -9t23.5 -19t8.5 -33.5q0 -14 -4.5 -27t-11.5 -27l-51 -101zM203 563l25 97q3 8 -5 11l-34 12l20 84q24 -1 44.5 -3.5t35.5 -9t23.5 -19t8.5 -33.5q0 -14 -4.5 -27t-11.5 -27l-51 -101z" />
    <glyph glyph-name="quotedblbase" unicode="&#x201e;" horiz-adv-x="354" 
d="M49 -111l25 97q1 8 -5 11l-34 12l20 84q24 -1 44.5 -3.5t35.5 -9t23.5 -19t8.5 -33.5q0 -14 -5 -27t-12 -27l-50 -101zM209 -111l25 97q1 8 -5 11l-34 12l20 84q24 -1 44.5 -3.5t35.5 -9t23.5 -19t8.5 -33.5q0 -14 -5 -27t-12 -27l-50 -101z" />
    <glyph glyph-name="dagger" unicode="&#x2020;" horiz-adv-x="397" 
d="M157 -83v190l-16 213l41 112h33l41 -112l-17 -213v-190h-82zM182 432l-84 -27h-74v87h74l84 -27v-33zM155 561v84h87v-84l-27 -96h-33zM299 405l-84 27v33l84 27h74v-87h-74z" />
    <glyph glyph-name="daggerdbl" unicode="&#x2021;" horiz-adv-x="429" 
d="M231 432l41 -110v-76l-41 -116h-33v-33h33l27 -96v-84h-87v84l27 96l-84 -27h-74v87h74l84 -27l-41 116v76l41 110l-84 -27h-74v87h74l84 -27l-27 96v84h87v-84l-27 -96l84 27h74v-87h-74l-84 27v33h-33v-33h33zM315 70l-84 27v33l84 27h74v-87h-74z" />
    <glyph glyph-name="bullet" unicode="&#x2022;" horiz-adv-x="395" 
d="M340 290q0 -70 -37 -104.5t-106 -34.5t-105.5 34.5t-36.5 104.5q0 69 36.5 103.5t105.5 34.5t106 -34.5t37 -103.5z" />
    <glyph glyph-name="ellipsis" unicode="&#x2026;" horiz-adv-x="616" 
d="M186 57q0 -69 -73 -69q-74 0 -74 69t74 69q73 0 73 -69zM389 57q0 -69 -73 -69q-74 0 -74 69t74 69q73 0 73 -69zM586 57q0 -69 -73 -69q-74 0 -74 69t74 69q73 0 73 -69z" />
    <glyph glyph-name="perthousand" unicode="&#x2030;" horiz-adv-x="1098" 
d="M185 295q-40 0 -68 12t-45 33t-24.5 50t-7.5 63q0 78 38.5 122.5t113.5 44.5q77 0 111 -42.5t34 -115.5q0 -78 -38.5 -122.5t-113.5 -44.5zM139 -17l377 638h107l-376 -638h-108zM188 359q35 0 49 26.5t14 74.5q0 44 -13 69.5t-48 25.5t-49 -28.5t-14 -68.5q0 -45 13 -72
t48 -27zM575 -12q-40 0 -68 12t-45 33t-24.5 50t-7.5 63q0 78 38.5 122.5t113.5 44.5q77 0 111 -42.5t34 -115.5q0 -78 -38.5 -122.5t-113.5 -44.5zM578 52q35 0 49 26.5t14 74.5q0 44 -13 69.5t-48 25.5t-49 -28.5t-14 -68.5q0 -45 13 -72t48 -27zM906 -12q-40 0 -68 12
t-45 33t-24.5 50t-7.5 63q0 78 38.5 122.5t113.5 44.5q77 0 111 -42.5t34 -115.5q0 -78 -38.5 -122.5t-113.5 -44.5zM909 52q35 0 49 26.5t14 74.5q0 44 -13 69.5t-48 25.5t-49 -28.5t-14 -68.5q0 -45 13 -72t48 -27z" />
    <glyph glyph-name="guilsinglleft" unicode="&#x2039;" horiz-adv-x="279" 
d="M137 103l-87 155l89 150h98l-77 -138q-4 -6 -4 -9.5t3 -9.5l75 -148h-97z" />
    <glyph glyph-name="guilsinglright" unicode="&#x203a;" horiz-adv-x="278" 
d="M43 103l75 143q4 7 4 10t-3 9l-77 143h98l88 -153l-87 -152h-98z" />
    <glyph glyph-name="fraction" unicode="&#x2044;" horiz-adv-x="179" 
d="M-150 -17l358 741h105l-357 -741h-106z" />
    <glyph glyph-name="Euro" unicode="&#x20ac;" horiz-adv-x="552" 
d="M198 345v-24v-19t1 -18h168l-13 -74h-146q28 -134 140 -134q18 0 35 2t26 6q8 3 10 7t3 10l14 76l80 5v-157q-10 -6 -28.5 -12.5t-42.5 -12t-51.5 -9t-55.5 -3.5q-109 0 -171.5 54.5t-81.5 167.5h-85l14 74h63v61h-55l14 74h50q12 60 37 103.5t59.5 72t77 42.5t88.5 14
q55 0 101 -12.5t68 -25.5v-155l-80 6l-14 74q-1 6 -3 10t-10 7q-21 8 -62 8q-51 0 -89 -33t-53 -111h183l-13 -74h-178z" />
    <glyph glyph-name="afii61352" unicode="&#x2116;" horiz-adv-x="1120" 
d="M513 0l-287 490v-398q0 -12 2.5 -15t13.5 -5l67 -8v-64h-257v64l63 7q11 2 13.5 5.5t2.5 14.5v449q0 11 -2.5 15t-13.5 5l-63 7v65h217l279 -477v386q0 11 -2.5 15t-13.5 5l-63 7v64h256v-64l-67 -8q-11 -2 -13.5 -5t-2.5 -14v-541h-129zM716 184h329v-86h-329v86z
M879 223q-92 0 -132.5 48t-40.5 126q0 81 44.5 129t136.5 48q46 0 78 -12.5t52 -35t29 -53.5t9 -68q0 -82 -42 -132t-134 -50zM880 289q37 0 58 24.5t21 86.5q0 60 -19 85t-56 25q-38 0 -60 -25t-22 -85t19 -85.5t59 -25.5z" />
    <glyph glyph-name="trademark" unicode="&#x2122;" horiz-adv-x="837" 
d="M98 348v41l57 5v280h-79l-8 -53h-40v103h321v-103h-41l-7 53h-80v-280l61 -5v-41h-184zM665 348v40l45 5v209l-90 -173h-51l-88 174v-210l48 -5v-40h-148v40l39 5v284l-39 4v43h106l110 -227l115 227h99v-43l-40 -4v-284l42 -5v-40h-148z" />
    <glyph glyph-name="partialdiff" unicode="&#x2202;" horiz-adv-x="561" 
d="M398 361q1 10 1.5 21.5t0.5 23.5q0 28 -5.5 59.5t-19.5 58.5t-38.5 44.5t-62.5 17.5q-40 0 -79.5 -16t-66.5 -36l-47 71q40 29 95 49t114 20q67 0 110 -25t67.5 -66.5t34 -94t9.5 -107.5q0 -65 -10.5 -134.5t-39 -127t-79.5 -94.5t-131 -37q-102 0 -155.5 52.5
t-53.5 146.5q0 51 14 92.5t40.5 71t64 45.5t83.5 16q52 0 91 -15.5t63 -35.5zM390 277q-20 17 -52 35t-72 18q-30 0 -50.5 -11.5t-33 -30.5t-18 -44t-5.5 -52q0 -24 5 -45t16.5 -37t29.5 -25.5t44 -9.5q39 0 64 19.5t40 49.5t22 65.5t10 67.5z" />
    <glyph glyph-name="product" unicode="&#x220f;" horiz-adv-x="766" 
d="M461 -176v64l63 7q11 2 13.5 5.5t2.5 14.5v721h-316v-720q0 -12 2.5 -15t13.5 -5l67 -8v-64h-279v64l63 7q11 2 13.5 5.5t2.5 14.5v718q0 11 -2.5 15t-13.5 5l-63 7v64h712v-64l-67 -8q-11 -2 -13.5 -5t-2.5 -14v-717q0 -12 2.5 -15t13.5 -5l67 -8v-64h-279z" />
    <glyph glyph-name="summation" unicode="&#x2211;" horiz-adv-x="627" 
d="M18 -176v67l230 384l-216 384v65h536v-180l-85 4l-14 77q-3 13 -17 13h-279l192 -354l-220 -367h321q8 0 11 1.5t5 9.5l16 88h84v-192h-564z" />
    <glyph glyph-name="minus" unicode="&#x2212;" horiz-adv-x="570" 
d="M95 275v95h381v-95h-381z" />
    <glyph glyph-name="radical" unicode="&#x221a;" horiz-adv-x="570" 
d="M251 0l-125 219q-7 11 -18 8l-62 -17l-30 69l147 70l129 -233l168 629l97 -24l-193 -721h-113z" />
    <glyph glyph-name="infinity" unicode="&#x221e;" horiz-adv-x="640" 
d="M320 264q-12 -13 -27.5 -27t-34 -26t-41 -19.5t-49.5 -7.5t-51.5 8t-44 24.5t-31 42t-11.5 61.5q0 32 11.5 58t31 44t46 27.5t57.5 9.5q50 0 85 -25t63 -54q14 14 29 28t33.5 25t40 18.5t47.5 7.5q28 0 52.5 -8t43 -25t29.5 -43.5t11 -63.5q0 -31 -11 -56t-30 -43
t-44.5 -28t-55.5 -10q-27 0 -49 7.5t-40 19.5t-33 26.5t-27 28.5zM277 323q-23 27 -46 45t-55 18q-29 0 -46.5 -18.5t-17.5 -44.5q0 -24 14.5 -46t46.5 -22q16 0 31 7t28 17t24.5 22t20.5 22zM370 322q21 -24 43 -44t54 -20q29 0 45 20t16 45q0 26 -14 45t-45 19
q-29 0 -53 -21t-46 -44z" />
    <glyph glyph-name="integral" unicode="&#x222b;" horiz-adv-x="399" 
d="M52 -87q18 -9 36 -13t35 -4q24 0 38.5 13.5t11.5 55.5l-54 622q-3 41 9 68t32 43t45.5 22.5t49.5 6.5q34 0 60.5 -5.5t53.5 -15.5l-23 -82q-36 18 -71 18q-24 0 -38.5 -15t-11.5 -55l54 -621q3 -42 -9 -69t-32 -43t-45.5 -22t-49.5 -6q-34 0 -60.5 5.5t-53.5 15.5z" />
    <glyph glyph-name="approxequal" unicode="&#x2248;" horiz-adv-x="570" 
d="M506 499q-5 -23 -11.5 -44t-17.5 -36.5t-27.5 -25t-40.5 -9.5q-27 0 -57.5 6.5t-60 14t-57 14t-49.5 6.5q-21 0 -33.5 -11t-28.5 -36l-59 26q21 48 45.5 77t69.5 29q29 0 57.5 -6.5t57 -14t55 -14t50.5 -6.5q20 0 28.5 12t17.5 36zM505 315q-5 -23 -11.5 -44t-17.5 -36.5
t-27.5 -25t-40.5 -9.5q-27 0 -57.5 6.5t-60 14t-57 13.5t-49.5 6q-21 0 -33.5 -11t-27.5 -36l-60 27q21 48 45.5 77t69.5 29q29 0 57.5 -6.5t57 -14t55 -14t50.5 -6.5q20 0 29 12t17 36z" />
    <glyph glyph-name="notequal" unicode="&#x2260;" horiz-adv-x="570" 
d="M275 147l-38 -90h-88l38 90h-91v97h132l32 75h-164v97h205l37 87h87l-37 -87h86v-97h-127l-31 -75h158v-97h-199z" />
    <glyph glyph-name="lessequal" unicode="&#x2264;" horiz-adv-x="570" 
d="M89 256v116l376 149l15 -94l-293 -111l295 -109l-12 -93zM90 0v95h381v-95h-381z" />
    <glyph glyph-name="greaterequal" unicode="&#x2265;" horiz-adv-x="570" 
d="M100 114l-12 93l295 109l-293 109l15 96l376 -149v-116zM99 0v95h381v-95h-381z" />
    <glyph glyph-name="lozenge" unicode="&#x25ca;" horiz-adv-x="570" 
d="M241 -17l-156 324l156 324h88l156 -324l-156 -324h-88zM392 307l-107 221l-104 -221l104 -226z" />
    <glyph glyph-name="breve.cyr" 
d="M251 642q38 0 58 23t31 65l76 -23q-17 -65 -56 -100.5t-111 -35.5t-111.5 36t-53.5 99l81 25q7 -39 26.5 -64t59.5 -25z" />
    <glyph glyph-name="hyphen.case" horiz-adv-x="317" 
d="M23 299v104h271v-104h-271z" />
    </font>
</defs>
</svg>
